<?xml version="1.0" encoding="utf-8"?>
<!-- Generator: Adobe Illustrator 27.1.1, SVG Export Plug-In . SVG Version: 6.00 Build 0)  -->
<svg version="1.1"
	 id="svg2" xmlns:rdf="http://www.w3.org/1999/02/22-rdf-syntax-ns#" xmlns:dc="http://purl.org/dc/elements/1.1/" xmlns:svg="http://www.w3.org/2000/svg" xmlns:cc="http://creativecommons.org/ns#"
	 xmlns="http://www.w3.org/2000/svg" xmlns:xlink="http://www.w3.org/1999/xlink" x="0px" y="0px" viewBox="0 0 12.6 12.6"
	 style="enable-background:new 0 0 12.6 12.6;" xml:space="preserve">
<style type="text/css">
	.st0{fill:#F6921E;}
	.st1{fill-rule:evenodd;clip-rule:evenodd;fill:#1B75BB;}
</style>
<circle cx="6.3" cy="6.3" r="6.1"/>
<g>
	<g>
		<g>
			<path class="st0" d="M6.4,6.5C6.8,6.3,7.1,6,7.5,5.7c1.1-0.8,2.2-1.6,3.2-2.4c0.1-0.1,0.2-0.2,0.3-0.2c0.3-0.2,0.7-0.1,0.7,0.3
				c0.1,0.2,0,0.4-0.1,0.5C11.5,4,11.2,4.1,11,4.3C9.6,5.4,8.1,6.5,6.7,7.6C6.4,7.7,6.1,7.7,5.9,7.5C5.5,6.9,5,6.4,4.6,5.9
				C4.5,5.8,4.4,5.7,4.3,5.6C4.1,5.3,4.2,4.9,4.5,4.8c0.2-0.1,0.4,0,0.5,0.1c0.2,0.2,0.3,0.4,0.5,0.6C5.8,5.8,6.1,6.2,6.4,6.5
				C6.4,6.5,6.4,6.5,6.4,6.5z"/>
			<path class="st0" d="M6.3,7.8C6.1,7.8,6,7.7,5.8,7.6c-0.3-0.4-0.6-0.8-1-1.1C4.8,6.3,4.6,6.1,4.5,5.9c0,0-0.1-0.1-0.1-0.1
				C4.4,5.8,4.3,5.7,4.2,5.6C4.1,5.5,4.1,5.3,4.1,5.1c0-0.2,0.2-0.3,0.4-0.4c0.2-0.1,0.5,0,0.6,0.1c0.1,0.1,0.3,0.3,0.4,0.4
				c0,0,0.1,0.1,0.1,0.1C5.8,5.6,6,5.8,6.2,6.1c0.1,0.1,0.2,0.2,0.3,0.3l1-0.7C8.5,4.8,9.6,4,10.7,3.2c0,0,0.1,0,0.1-0.1
				C10.8,3.1,10.9,3,11,3c0.2-0.1,0.4-0.1,0.6-0.1c0.2,0.1,0.3,0.2,0.4,0.4c0.1,0.2,0,0.5-0.2,0.6c-0.2,0.1-0.3,0.3-0.5,0.4
				c-0.1,0-0.1,0.1-0.2,0.1C10.7,4.7,10.3,5,9.8,5.3c-1,0.8-2.1,1.5-3.1,2.3C6.6,7.8,6.5,7.8,6.3,7.8z M4.7,4.9c-0.1,0-0.1,0-0.1,0
				C4.4,4.9,4.4,5,4.3,5.1c0,0.1,0,0.2,0.1,0.4c0.1,0.1,0.1,0.1,0.2,0.2c0,0,0.1,0.1,0.1,0.1C4.8,6,4.9,6.1,5.1,6.3
				C5.4,6.6,5.7,7,6,7.4c0.2,0.2,0.4,0.2,0.6,0.1c1-0.8,2.1-1.6,3.1-2.3c0.4-0.3,0.8-0.6,1.3-0.9c0.1,0,0.1-0.1,0.2-0.1
				c0.2-0.1,0.3-0.2,0.5-0.4c0.1-0.1,0.1-0.3,0.1-0.4c0-0.1-0.1-0.2-0.2-0.3c-0.1,0-0.2,0-0.3,0.1c-0.1,0.1-0.1,0.1-0.2,0.2
				c0,0-0.1,0-0.1,0.1C9.7,4.2,8.6,5,7.6,5.8L6.4,6.7L6.3,6.6c0,0,0,0,0,0c0,0,0,0,0,0C6.2,6.5,6.1,6.3,6,6.2C5.8,6,5.6,5.8,5.4,5.5
				c0,0-0.1-0.1-0.1-0.1C5.2,5.2,5.1,5.1,4.9,5C4.9,4.9,4.8,4.9,4.7,4.9z"/>
		</g>
	</g>
	<path class="st1" d="M6.7,2.2L6.6,2.1C6.5,2,6.6,1.9,6.7,1.9C7.9,2,8.9,2.7,9.6,3.6c0.1,0.1,0,0.2,0,0.3L9,4.3
		c-0.1,0.1-0.2,0-0.2,0C8.2,3.6,7.4,3.1,6.6,3C6.5,3,6.4,2.9,6.5,2.8l0.2-0.2C6.8,2.5,6.8,2.3,6.7,2.2z"/>
	<path class="st1" d="M10.5,6.2c0,2.7-2.5,4.9-5.4,4.3c-1.5-0.3-3-1.8-3.3-3.3C1.3,4.8,2.8,2.7,4.9,2l0-0.8c0-0.2,0.3-0.4,0.4-0.2
		l1.2,1.1c0.1,0.1,0.1,0.2,0,0.3L5.4,3.7C5.3,3.9,5,3.8,5,3.6l0-0.4C3.7,3.6,2.8,4.9,2.8,6.3c0,1.8,1.5,3.2,3.2,3.2
		c1.8,0,3.3-1.5,3.3-3.3c0-0.1,0-0.2,0-0.3c0-0.1,0-0.2,0.1-0.2l0.6-0.5c0.1-0.1,0.2,0,0.3,0.1C10.5,5.7,10.5,6,10.5,6.2z"/>
</g>
</svg>
