<?xml version="1.0" encoding="utf-8"?>
<!-- Generator: Adobe Illustrator 27.1.1, SVG Export Plug-In . SVG Version: 6.00 Build 0)  -->
<svg version="1.1"
	 id="svg2" xmlns:rdf="http://www.w3.org/1999/02/22-rdf-syntax-ns#" xmlns:dc="http://purl.org/dc/elements/1.1/" xmlns:svg="http://www.w3.org/2000/svg" xmlns:cc="http://creativecommons.org/ns#"
	 xmlns="http://www.w3.org/2000/svg" xmlns:xlink="http://www.w3.org/1999/xlink" x="0px" y="0px" viewBox="0 0 12 12"
	 style="enable-background:new 0 0 12 12;" xml:space="preserve">
<style type="text/css">
	.st0{fill:#F58614;}
	.st1{fill-rule:evenodd;clip-rule:evenodd;fill:#3872C1;}
</style>
<circle cx="6" cy="6" r="6.1"/>
<g id="g14">
	<g id="g20" transform="translate(542.4902,319.6395)">
		<path id="path22" class="st0" d="M-536.5-313.2c0.4-0.3,0.7-0.5,1.1-0.8c1.1-0.8,2.1-1.6,3.2-2.4c0.1-0.1,0.2-0.2,0.3-0.2
			c0.3-0.2,0.6-0.1,0.7,0.3c0.1,0.2,0,0.4-0.1,0.5c-0.2,0.2-0.4,0.3-0.6,0.5c-1.4,1.1-2.9,2.1-4.3,3.2c-0.2,0.2-0.5,0.2-0.7-0.1
			c-0.4-0.5-0.9-1-1.3-1.6c-0.1-0.1-0.2-0.2-0.3-0.3c-0.2-0.3-0.1-0.6,0.2-0.8c0.2-0.1,0.4,0,0.5,0.1c0.2,0.2,0.3,0.4,0.5,0.5
			C-537.1-313.9-536.8-313.6-536.5-313.2C-536.5-313.3-536.5-313.2-536.5-313.2"/>
	</g>
	<g id="g24" transform="translate(491.4382,369.7353)">
		<path id="path26" class="st0" d="M-487.1-365c-0.1,0-0.1,0-0.1,0c-0.1,0-0.2,0.1-0.2,0.2c0,0.1,0,0.2,0.1,0.4
			c0.1,0.1,0.1,0.1,0.2,0.2c0,0,0.1,0.1,0.1,0.1c0.1,0.2,0.3,0.3,0.4,0.5c0.3,0.4,0.6,0.7,0.9,1.1c0.2,0.2,0.4,0.2,0.6,0.1
			c1-0.8,2-1.5,3-2.3c0.4-0.3,0.8-0.6,1.2-0.9c0.1,0,0.1-0.1,0.2-0.1c0.2-0.1,0.3-0.2,0.5-0.4c0.1-0.1,0.1-0.3,0.1-0.4
			c0-0.1-0.1-0.2-0.2-0.3s-0.2,0-0.3,0c-0.1,0-0.1,0.1-0.2,0.2c0,0-0.1,0-0.1,0.1c-1.1,0.8-2.1,1.6-3.2,2.4l-1.1,0.8l-0.1-0.1l0,0
			c0,0,0,0,0,0c-0.1-0.1-0.2-0.2-0.3-0.4c-0.2-0.2-0.4-0.5-0.6-0.7c0,0-0.1-0.1-0.1-0.1c-0.1-0.1-0.2-0.3-0.4-0.4
			C-486.9-364.9-487-365-487.1-365 M-485.5-362.1c-0.2,0-0.4-0.1-0.5-0.2c-0.3-0.4-0.6-0.8-0.9-1.1c-0.1-0.2-0.3-0.3-0.4-0.5
			c0,0-0.1-0.1-0.1-0.1c-0.1-0.1-0.1-0.1-0.2-0.2c-0.1-0.2-0.2-0.4-0.1-0.5c0-0.2,0.2-0.3,0.4-0.4c0.2-0.1,0.4,0,0.6,0.1
			c0.1,0.1,0.2,0.3,0.4,0.4c0,0,0.1,0.1,0.1,0.1c0.2,0.2,0.4,0.5,0.6,0.7c0.1,0.1,0.2,0.2,0.2,0.3l1-0.7c1.1-0.8,2.1-1.6,3.2-2.4
			c0,0,0.1,0,0.1-0.1c0.1-0.1,0.2-0.1,0.2-0.2c0.2-0.1,0.4-0.1,0.5-0.1c0.2,0.1,0.3,0.2,0.4,0.4c0.1,0.2,0,0.4-0.2,0.6
			c-0.2,0.1-0.3,0.3-0.5,0.4c-0.1,0-0.1,0.1-0.2,0.1c-0.4,0.3-0.8,0.6-1.2,0.9c-1,0.7-2,1.5-3,2.3
			C-485.2-362.1-485.4-362.1-485.5-362.1"/>
	</g>
	<g id="g28" transform="translate(551.0818,448)">
		<path id="path30" class="st1" d="M-544.8-445.8l-0.1-0.2c-0.1-0.1,0-0.2,0.1-0.2c1.2,0.1,2.2,0.8,2.9,1.7c0.1,0.1,0,0.2,0,0.3
			l-0.6,0.4c-0.1,0.1-0.2,0-0.2,0c-0.5-0.7-1.3-1.1-2.1-1.3c-0.1,0-0.1-0.1-0.1-0.2l0.2-0.2C-544.7-445.5-544.7-445.7-544.8-445.8"
			/>
	</g>
	<g id="g32" transform="translate(664.6223,328.3786)">
		<path id="path34" class="st1" d="M-654.6-322.3c0,2.7-2.5,4.8-5.2,4.2c-1.4-0.3-2.9-1.8-3.2-3.2c-0.5-2.3,0.9-4.5,3-5.1l0-0.8
			c0-0.2,0.3-0.3,0.4-0.2l1.2,1.1c0.1,0.1,0.1,0.2,0,0.3l-1,1.1c-0.1,0.2-0.4,0.1-0.4-0.2l0-0.4c-1.2,0.5-2.1,1.7-2.1,3.1
			c0,1.7,1.4,3.1,3.2,3.2c1.8,0,3.3-1.4,3.3-3.2c0-0.1,0-0.2,0-0.3c0-0.1,0-0.2,0.1-0.2l0.6-0.5c0.1-0.1,0.2,0,0.3,0.1
			C-654.7-322.8-654.6-322.5-654.6-322.3"/>
	</g>
</g>
</svg>
