<?xml version="1.0" encoding="utf-8"?>
<!-- Generator: Adobe Illustrator 27.1.1, SVG Export Plug-In . SVG Version: 6.00 Build 0)  -->
<svg version="1.1"
	 id="svg2" 
   xmlns:rdf="http://www.w3.org/1999/02/22-rdf-syntax-ns#" 
   xmlns:cc="http://creativecommons.org/ns#" 
   xmlns:dc="http://purl.org/dc/elements/1.1/" 
   xmlns:svg="http://www.w3.org/2000/svg"
	 xmlns="http://www.w3.org/2000/svg" 
   xmlns:xlink="http://www.w3.org/1999/xlink" 
   width="35" 
   height="35" 
   viewBox="0 0 8.68 9.08"
	 style="enable-background:new 0 0 9.68 10.08;"
    xml:space="preserve">
<style type="text/css">
	.st0{fill:#F58614;}
	.st1{fill-rule:evenodd;clip-rule:evenodd;fill:#3872C1;}
</style>
<g>
	<g id="g14">
		<g id="g20" transform="translate(542.4902,319.6395)">
			<path id="path22" class="st0" d="M-537.94-314.08c0.32-0.24,0.64-0.48,0.96-0.72c0.96-0.72,1.92-1.44,2.88-2.15
				c0.1-0.07,0.19-0.15,0.29-0.21c0.26-0.17,0.58-0.06,0.66,0.24c0.05,0.17,0.01,0.32-0.13,0.43c-0.18,0.15-0.38,0.29-0.56,0.43
				c-1.29,0.97-2.59,1.93-3.88,2.9c-0.22,0.16-0.48,0.14-0.65-0.07c-0.4-0.48-0.79-0.95-1.19-1.43c-0.08-0.09-0.15-0.18-0.23-0.27
				c-0.2-0.25-0.12-0.58,0.17-0.69c0.16-0.06,0.32-0.03,0.44,0.09c0.15,0.16,0.28,0.33,0.42,0.49c0.26,0.32,0.53,0.63,0.79,0.95
				C-537.96-314.1-537.95-314.09-537.94-314.08"/>
		</g>
		<g id="g24" transform="translate(491.4382,369.7353)">
			<path id="path26" class="st0" d="M-488.4-365.66c-0.05,0-0.09,0.01-0.13,0.02c-0.11,0.04-0.18,0.12-0.21,0.22
				c-0.03,0.11,0,0.22,0.08,0.32c0.05,0.06,0.1,0.12,0.15,0.18c0.03,0.03,0.05,0.06,0.08,0.09c0.11,0.14,0.23,0.27,0.34,0.41
				c0.28,0.33,0.57,0.68,0.85,1.02c0.14,0.17,0.34,0.19,0.51,0.06c0.92-0.69,1.85-1.39,2.76-2.06c0.37-0.28,0.75-0.56,1.12-0.84
				c0.05-0.03,0.09-0.07,0.14-0.1c0.14-0.1,0.29-0.21,0.42-0.33c0.13-0.1,0.12-0.24,0.1-0.33c-0.03-0.11-0.1-0.19-0.2-0.23
				c-0.1-0.04-0.21-0.02-0.31,0.04c-0.07,0.04-0.13,0.09-0.2,0.15c-0.03,0.02-0.06,0.04-0.09,0.06c-0.96,0.72-1.92,1.44-2.88,2.15
				l-1.03,0.77l-0.06-0.06c0,0-0.01-0.01-0.01-0.01c-0.01-0.01-0.01-0.01-0.02-0.02c-0.09-0.11-0.18-0.21-0.26-0.32
				c-0.18-0.21-0.35-0.42-0.53-0.63c-0.03-0.04-0.07-0.08-0.1-0.12c-0.1-0.12-0.21-0.25-0.32-0.37
				C-488.26-365.64-488.34-365.66-488.4-365.66 M-486.96-363.06c-0.16,0-0.32-0.07-0.43-0.21c-0.28-0.34-0.57-0.69-0.85-1.02
				c-0.11-0.14-0.23-0.27-0.34-0.41c-0.02-0.03-0.05-0.06-0.07-0.09c-0.05-0.06-0.1-0.12-0.16-0.19c-0.12-0.15-0.16-0.33-0.11-0.49
				c0.04-0.16,0.16-0.29,0.33-0.35c0.2-0.08,0.4-0.03,0.54,0.11c0.12,0.12,0.22,0.25,0.33,0.38c0.03,0.04,0.07,0.08,0.1,0.12
				c0.18,0.21,0.35,0.42,0.53,0.63c0.07,0.09,0.15,0.18,0.22,0.27l0.89-0.66c0.96-0.72,1.92-1.44,2.88-2.15
				c0.03-0.02,0.06-0.04,0.08-0.06c0.07-0.05,0.14-0.1,0.21-0.15c0.15-0.1,0.33-0.13,0.49-0.07c0.16,0.06,0.28,0.19,0.33,0.36
				c0.06,0.21,0,0.4-0.16,0.54c-0.14,0.12-0.29,0.23-0.43,0.33c-0.05,0.03-0.09,0.07-0.14,0.1c-0.37,0.28-0.75,0.56-1.12,0.84
				c-0.9,0.68-1.84,1.37-2.76,2.06C-486.72-363.1-486.84-363.06-486.96-363.06"/>
		</g>
		<g id="g28" transform="translate(551.0818,448)">
			<path id="path30" class="st1" d="M-546.28-446.24l-0.11-0.15c-0.06-0.06-0.01-0.17,0.08-0.15c1.06,0.13,1.99,0.7,2.61,1.51
				c0.06,0.08,0.04,0.19-0.04,0.25l-0.52,0.38c-0.06,0.05-0.15,0.03-0.2-0.03c-0.46-0.61-1.15-1.04-1.95-1.14
				c-0.08-0.01-0.11-0.11-0.05-0.16l0.15-0.16C-546.22-446-546.2-446.16-546.28-446.24"/>
		</g>
		<g id="g32" transform="translate(664.6223,328.3786)">
			<path id="path34" class="st1" d="M-656.46-323.08c0,2.43-2.23,4.34-4.75,3.79c-1.31-0.28-2.64-1.61-2.92-2.92
				c-0.46-2.13,0.83-4.05,2.7-4.6l-0.04-0.7c-0.01-0.2,0.23-0.31,0.37-0.17l1.07,1.01c0.09,0.08,0.09,0.22,0.01,0.31l-0.95,1.03
				c-0.13,0.14-0.37,0.06-0.38-0.14l-0.02-0.35c-1.12,0.42-1.91,1.51-1.89,2.78c0.02,1.57,1.31,2.86,2.88,2.88
				c1.63,0.02,2.96-1.29,2.96-2.92c0-0.08,0-0.15-0.01-0.23c-0.01-0.08,0.03-0.15,0.09-0.2l0.57-0.42c0.09-0.06,0.21-0.02,0.23,0.09
				C-656.48-323.59-656.46-323.34-656.46-323.08"/>
		</g>
	</g>
</g>
</svg>
