<?xml version="1.0" encoding="utf-8"?>
<!-- Generator: Adobe Illustrator 27.1.1, SVG Export Plug-In . SVG Version: 6.00 Build 0)  -->
<svg version="1.1" id="Layer_1" xmlns="http://www.w3.org/2000/svg" xmlns:xlink="http://www.w3.org/1999/xlink" x="0px" y="0px"
	 viewBox="0 0 256 256" style="enable-background:new 0 0 256 256;" xml:space="preserve">
<style type="text/css">
	.st0{fill:#F58614;}
</style>
<g transform="translate(1.4065934065934016 1.4065934065934016) scale(2.81 2.81)">
	<path class="st0" d="M15.1,80.2H4.3C2.5,80.2,1,78.8,1,77V52.8c0-1.8,1.5-3.3,3.3-3.3h10.8C15.1,49.5,15.1,80.2,15.1,80.2z"/>
	<path class="st0" d="M15.1,81.2H4.3C1.9,81.2,0,79.3,0,77V52.8c0-2.3,1.9-4.3,4.3-4.3h10.8c0.6,0,1,0.5,1,1v30.7
		C16.1,80.8,15.6,81.2,15.1,81.2z M4.3,50.5c-1.3,0-2.3,1-2.3,2.3V77c0,1.2,1,2.3,2.3,2.3h9.8V50.5H4.3z"/>
	<path class="st0" d="M85.4,49.6h-2c0-21.4-17.4-38.9-38.9-38.9S5.7,28.2,5.7,49.6h-2C3.7,27.1,22,8.8,44.5,8.8
		C67.1,8.8,85.4,27.1,85.4,49.6z"/>
	<path class="st0" d="M74.9,80.2h10.8c1.8,0,3.3-1.5,3.3-3.3V52.8c0-1.8-1.5-3.3-3.3-3.3H74.9V80.2z"/>
	<path class="st0" d="M85.7,81.2H74.9c-0.6,0-1-0.4-1-1V49.5c0-0.5,0.4-1,1-1h10.8c2.3,0,4.3,1.9,4.3,4.3V77
		C90,79.3,88.1,81.2,85.7,81.2z M75.9,79.2h9.8c1.2,0,2.3-1,2.3-2.3V52.8c0-1.2-1-2.3-2.3-2.3h-9.8V79.2z"/>
	<path class="st0" d="M66.9,16.6l-4.4,4.8c-5.2-3.3-11.4-5.2-18-5.2s-12.8,1.9-18,5.2l-4.4-4.8C36.4,7.5,51.4,7.5,66.9,16.6z"/>
	<path class="st0" d="M62.5,22.5c-0.2,0-0.4,0-0.5-0.2c-5.2-3.3-11.3-5.1-17.4-5.1S32.4,19,27.1,22.3c-0.4,0.3-0.9,0.2-1.3-0.2
		l-4.4-4.8c-0.2-0.2-0.3-0.5-0.3-0.8c0-0.3,0.2-0.6,0.5-0.7c14.6-9.3,30-9.4,45.8,0c0.3,0.1,0.4,0.4,0.5,0.7s-0.1,0.6-0.2,0.8
		l-4.4,4.8C63,22.3,62.8,22.5,62.5,22.5z M44.5,15.2c6.3,0,12.4,1.7,17.8,4.9l3-3.3C51,8.8,37,8.8,23.7,16.9l3.1,3.3
		C32.2,16.9,38.3,15.2,44.5,15.2z"/>
	<path class="st0" d="M6,69.6c-0.6,0-1-0.4-1-1V54.2c0-0.5,0.4-1,1-1s1,0.5,1,1v14.3C7,69.1,6.6,69.6,6,69.6z"/>
	<path class="st0" d="M6,76.6c-0.6,0-1-0.4-1-1v-3c0-0.6,0.4-1,1-1s1,0.4,1,1v3C7,76.1,6.6,76.6,6,76.6z"/>
	<path class="st0" d="M84,69.6c-0.6,0-1-0.4-1-1V54.2c0-0.5,0.4-1,1-1s1,0.5,1,1v14.3C85,69.1,84.6,69.6,84,69.6z"/>
	<path class="st0" d="M84,76.6c-0.6,0-1-0.4-1-1v-3c0-0.6,0.4-1,1-1s1,0.4,1,1v3C85,76.1,84.6,76.6,84,76.6z"/>
</g>
</svg>
