<?xml version="1.0" encoding="utf-8"?>
<!-- Generator: Adobe Illustrator 27.1.1, SVG Export Plug-In . SVG Version: 6.00 Build 0)  -->
<svg version="1.1" id="Layer_1" xmlns="http://www.w3.org/2000/svg" xmlns:xlink="http://www.w3.org/1999/xlink" x="0px" y="0px"
	 viewBox="0 0 256 256" style="enable-background:new 0 0 256 256;" xml:space="preserve">
<style type="text/css">
	.st0{fill:#00F6FF;}
</style>
<g transform="translate(1.4065934065934016 1.4065934065934016) scale(2.81 2.81)">
	<path class="st0" d="M15.08,80.24H4.26C2.47,80.24,1,78.78,1,76.98V52.81c0-1.79,1.47-3.26,3.26-3.26h10.81
		C15.08,49.55,15.08,80.24,15.08,80.24z"/>
	<path class="st0" d="M15.08,81.24H4.26C1.91,81.24,0,79.33,0,76.98V52.81c0-2.35,1.91-4.26,4.26-4.26h10.82c0.55,0,1,0.45,1,1
		v30.69C16.08,80.79,15.63,81.24,15.08,81.24z M4.26,50.55C3.01,50.55,2,51.56,2,52.81v24.17c0,1.25,1.01,2.26,2.26,2.26h9.81V50.55
		H4.26z"/>
	<path class="st0" d="M85.41,49.63h-2c0-21.43-17.44-38.87-38.87-38.87S5.67,28.19,5.67,49.63h-2c0-22.53,18.33-40.87,40.87-40.87
		C67.07,8.76,85.41,27.09,85.41,49.63z"/>
	<path class="st0" d="M74.92,80.24h10.82c1.79,0,3.26-1.47,3.26-3.26V52.81c0-1.79-1.47-3.26-3.26-3.26H74.92V80.24z"/>
	<path class="st0" d="M85.74,81.24H74.92c-0.55,0-1-0.45-1-1V49.55c0-0.55,0.45-1,1-1h10.82c2.35,0,4.26,1.91,4.26,4.26v24.17
		C90,79.33,88.09,81.24,85.74,81.24z M75.92,79.24h9.82c1.25,0,2.26-1.01,2.26-2.26V52.81c0-1.25-1.01-2.26-2.26-2.26h-9.82V79.24z"
		/>
	<path class="st0" d="M66.93,16.64l-4.44,4.82c-5.2-3.29-11.35-5.23-17.96-5.23s-12.76,1.93-17.96,5.23l-4.44-4.82
		C36.44,7.47,51.37,7.47,66.93,16.64z"/>
	<path class="st0" d="M62.5,22.45c-0.19,0-0.37-0.05-0.53-0.16c-5.24-3.32-11.26-5.07-17.42-5.07c-6.16,0-12.18,1.75-17.42,5.07
		c-0.41,0.26-0.94,0.19-1.27-0.17l-4.44-4.82c-0.2-0.22-0.29-0.51-0.26-0.81c0.04-0.29,0.2-0.55,0.45-0.71
		c14.57-9.34,29.99-9.35,45.83-0.02c0.26,0.15,0.44,0.42,0.48,0.71s-0.05,0.6-0.25,0.82l-4.44,4.82
		C63.04,22.34,62.77,22.45,62.5,22.45z M44.54,15.23c6.26,0,12.39,1.71,17.78,4.94l3.03-3.29c-14.39-8.09-28.39-8.1-41.65-0.03
		l3.06,3.32C32.15,16.93,38.28,15.23,44.54,15.23z"/>
	<path class="st0" d="M6,69.55c-0.55,0-1-0.45-1-1V54.24c0-0.55,0.45-1,1-1s1,0.45,1,1v14.31C7,69.1,6.55,69.55,6,69.55z"/>
	<path class="st0" d="M6,76.55c-0.55,0-1-0.45-1-1v-3c0-0.55,0.45-1,1-1s1,0.45,1,1v3C7,76.1,6.55,76.55,6,76.55z"/>
	<path class="st0" d="M84,69.55c-0.55,0-1-0.45-1-1V54.24c0-0.55,0.45-1,1-1s1,0.45,1,1v14.31C85,69.1,84.55,69.55,84,69.55z"/>
	<path class="st0" d="M84,76.55c-0.55,0-1-0.45-1-1v-3c0-0.55,0.45-1,1-1s1,0.45,1,1v3C85,76.1,84.55,76.55,84,76.55z"/>
</g>
</svg>
