<?xml version="1.0" encoding="utf-8"?>
<!-- Generator: Adobe Illustrator 27.1.1, SVG Export Plug-In . SVG Version: 6.00 Build 0)  -->
<svg version="1.1" id="Layer_1" xmlns="http://www.w3.org/2000/svg" xmlns:xlink="http://www.w3.org/1999/xlink" x="0px" y="0px"
	 viewBox="0 0 256 260.2" style="enable-background:new 0 0 256 260.2;" xml:space="preserve">
<style type="text/css">
	.st0{fill:#F58614;stroke:#F58614;stroke-width:2;stroke-miterlimit:10;}
</style>
<g transform="translate(1.4065934065934016 1.4065934065934016) scale(2.81 2.81)">
	<path class="st0" d="M45.4,80.6c-2.6,0-4.6-2.1-4.6-4.6s2.1-4.6,4.6-4.6c2.6,0,4.6,2.1,4.6,4.6S48,80.6,45.4,80.6z M45.4,73.3
		c-1.4,0-2.6,1.2-2.6,2.6s1.2,2.6,2.6,2.6s2.6-1.2,2.6-2.6S46.9,73.3,45.4,73.3z"/>
	<path class="st0" d="M42.4,29.1c-0.2,0-0.3,0-0.5-0.1c-1.6-0.8-3.2-0.8-4.8,0c-0.5,0.3-1.1,0.1-1.3-0.4c-0.3-0.5-0.1-1.1,0.4-1.3
		c2.2-1.1,4.4-1.1,6.6,0c0.5,0.3,0.7,0.9,0.4,1.3C43.1,28.9,42.8,29.1,42.4,29.1z"/>
	<path class="st0" d="M47.6,29.1c-0.4,0-0.7-0.2-0.9-0.5c-0.3-0.5-0.1-1.1,0.4-1.3c2.2-1.1,4.4-1.1,6.6,0c0.5,0.3,0.7,0.9,0.4,1.3
		c-0.3,0.5-0.9,0.7-1.3,0.4c-1.6-0.8-3.2-0.8-4.8,0C47.9,29,47.7,29.1,47.6,29.1z"/>
	<path class="st0" d="M45,42c-1.6,0-3.2-0.8-4.8-2.3c-0.4-0.4-0.4-1,0-1.4s1-0.4,1.4,0c2.3,2.3,4.4,2.3,6.8,0c0.4-0.4,1-0.4,1.4,0
		s0.4,1,0,1.4C48.2,41.3,46.6,42,45,42z"/>
	<path class="st0" d="M84.5,89.5H67.6v-0.2l5.1-6.5c1.4-2,2.2-4.3,2.2-6.7V62.8c0-4.3-3.3-8.1-7.9-8.8l-7.8-1.3
		c-2.5-0.4-4.4-2.4-4.4-4.8v-1.6c0.1-0.1,0.3-0.2,0.4-0.3c0.3-0.3,0.6-0.6,0.9-1c3.4-0.6,6-3.3,6.4-6.8h1.6c1.6,0,2.9-1.3,2.9-2.9
		v-8c0-1.6-1.3-2.9-2.9-2.9h-2.5v-0.2c0.3-0.1,0.5-0.4,0.6-0.8c1.1-7.5-0.1-13.2-3.3-17c-3-3.2-7.6-4.9-13.7-4.9S33.8,3.6,30.7,7.3
		s-4,8.8-2.8,15.1c0.1,0.3,0.2,0.5,0.4,0.6l0.1,1.3h-2.5c-1.6,0-2.9,1.3-2.9,2.9v8c0,1.6,1.3,2.9,2.9,2.9H30c1,3.1,2.8,5.8,5.2,8.1
		v1.6c0,2.3-1.8,4.3-4.4,4.8L23,53.9c-4.6,0.8-7.9,4.5-7.9,8.8v13.4c0,2.4,0.7,4.7,2.2,6.7l5.1,6.4v0.3H5.5c-0.6,0-1,0.4-1,1
		s0.4,1,1,1h16.9h45.2h16.9c0.6,0,1-0.4,1-1S85.1,89.5,84.5,89.5z M71.1,81.7l-3.5,4.5V71.5h5.3v4.7C72.9,78.2,72.3,80.1,71.1,81.7z
		 M58.3,41.8c0.3-0.5,0.6-1.1,0.9-1.7c0.3-0.6,0.5-1.2,0.7-1.9h0.5C60.2,39.6,59.4,40.9,58.3,41.8z M64.1,26.4
		c0.5,0,0.9,0.4,0.9,0.9v8c0,0.5-0.4,0.9-0.9,0.9h-3.6c0.2-0.9,0.3-1.7,0.4-2.6l0.5-7.1L64.1,26.4L64.1,26.4z M57.9,9.7
		C58,9.5,58.1,9.2,58.2,9c1.9,3,2.7,7.1,2.1,12.4l0,0C57.2,18.9,55,16.2,57.9,9.7z M32.3,8.6c2.7-3.2,7.4-5.1,12.9-5.1
		c5.1,0,9,1.3,11.6,3.8c-0.2,0.5-0.5,0.9-0.7,1.4C51.2,17.8,42,22.2,29.7,21.3C28.8,16,29.7,11.7,32.3,8.6z M25.9,36.2
		c-0.5,0-0.9-0.4-0.9-0.9v-8c0-0.5,0.4-0.9,0.9-0.9h2.6l0.5,7.1c0.1,0.9,0.2,1.8,0.4,2.6L25.9,36.2L25.9,36.2z M31.1,33.4l-0.7-10
		c10.4,0.6,18.7-2.5,24.3-8.9c-0.2,4.5,2.4,7,5,9L59,33.4c-0.2,2-0.7,4-1.5,5.8c-0.4,1-1,1.9-1.6,2.8c-0.2,0.4-0.5,0.7-0.8,1
		c-0.1,0-0.3,0-0.4,0h-5.8c-0.6,0-1,0.4-1,1s0.4,1,1,1h4.2c-1.7,1.5-3.6,2.7-5.8,3.5c-1.5,0.5-3.1,0.5-4.6,0
		C36.2,46.2,31.7,40.3,31.1,33.4z M37.2,47.9L37.2,47.9c1.5,1,3.1,1.9,4.8,2.5c1,0.3,2,0.5,3,0.5s2-0.2,3-0.5
		c1.7-0.6,3.3-1.5,4.8-2.6l0,0c0,2.3,1.2,4.4,3.2,5.6c-7.3,6.7-14.5,6.7-21.9,0C36,52.2,37.2,50.2,37.2,47.9z M23.4,55.9l7.8-1.3
		c0.3-0.1,0.6-0.1,0.9-0.2c4.3,4.1,8.6,6.1,12.9,6.1s8.6-2.1,12.9-6.1c0.3,0.1,0.6,0.2,0.9,0.2l7.8,1.3c3.6,0.6,6.3,3.5,6.3,6.9v6.7
		h-5.3v-1.6c0-2.8-2.3-5.1-5.1-5.1h-35c-2.8,0-5.1,2.3-5.1,5.1v1.6h-5.3v-6.7C17.1,59.4,19.7,56.5,23.4,55.9z M18.9,81.7
		c-1.2-1.6-1.8-3.5-1.8-5.5v-4.7h5.3v14.6L18.9,81.7z M24.4,89.5V67.9c0-1.7,1.4-3.1,3.1-3.1h35c1.7,0,3.1,1.4,3.1,3.1v21.6H24.4z"
		/>
</g>
</svg>
