<?xml version="1.0" encoding="utf-8"?>
<!-- Generator: Adobe Illustrator 27.1.1, SVG Export Plug-In . SVG Version: 6.00 Build 0)  -->
<svg version="1.1" id="Layer_1" xmlns="http://www.w3.org/2000/svg" xmlns:xlink="http://www.w3.org/1999/xlink" x="0px" y="0px"
	 viewBox="0 0 256 256" style="enable-background:new 0 0 256 256;" xml:space="preserve">
<style type="text/css">
	.st0{fill:#00F6FF;}
</style>
<g transform="translate(1.4065934065934016 1.4065934065934016) scale(2.81 2.81)">
	<path class="st0" d="M45.4,79.1c-2.6,0-4.6-2.1-4.6-4.6s2.1-4.6,4.6-4.6c2.6,0,4.6,2.1,4.6,4.6S48,79.1,45.4,79.1z M45.4,71.8
		c-1.4,0-2.6,1.2-2.6,2.6s1.2,2.6,2.6,2.6c1.4,0,2.6-1.2,2.6-2.6S46.9,71.8,45.4,71.8z"/>
	<path class="st0" d="M42.4,27.6c-0.2,0-0.3,0-0.5-0.1c-1.6-0.8-3.2-0.8-4.8,0c-0.5,0.3-1.1,0.1-1.3-0.4c-0.3-0.5-0.1-1.1,0.4-1.3
		c2.2-1.1,4.4-1.1,6.6,0c0.5,0.3,0.7,0.9,0.4,1.3C43.1,27.4,42.8,27.6,42.4,27.6z"/>
	<path class="st0" d="M47.6,27.6c-0.4,0-0.7-0.2-0.9-0.5c-0.3-0.5-0.1-1.1,0.4-1.3c2.2-1.1,4.4-1.1,6.6,0c0.5,0.3,0.7,0.9,0.4,1.3
		c-0.3,0.5-0.9,0.7-1.3,0.4c-1.6-0.8-3.2-0.8-4.8,0C47.9,27.5,47.7,27.6,47.6,27.6z"/>
	<path class="st0" d="M45,40.5c-1.6,0-3.2-0.8-4.8-2.3c-0.4-0.4-0.4-1,0-1.4c0.4-0.4,1-0.4,1.4,0c2.3,2.3,4.4,2.3,6.8,0
		c0.4-0.4,1-0.4,1.4,0s0.4,1,0,1.4C48.2,39.8,46.6,40.5,45,40.5z"/>
	<path class="st0" d="M84.5,88H67.6v-0.2l5.1-6.5c1.4-2,2.2-4.3,2.2-6.7V61.3c0-4.3-3.3-8.1-7.9-8.8l-7.8-1.3
		c-2.5-0.4-4.4-2.4-4.4-4.8l0-1.6c0.1-0.1,0.3-0.2,0.4-0.3c0.3-0.3,0.6-0.6,0.9-1c3.4-0.6,6-3.3,6.4-6.8h1.6c1.6,0,2.9-1.3,2.9-2.9
		v-8c0-1.6-1.3-2.9-2.9-2.9h-2.5l0-0.2c0.3-0.1,0.5-0.4,0.6-0.8c1.1-7.5-0.1-13.2-3.3-17C55.9,1.7,51.3,0,45.2,0
		c-6.1,0-11.4,2.1-14.5,5.8c-3.1,3.7-4,8.8-2.8,15.1c0.1,0.3,0.2,0.5,0.4,0.6l0.1,1.3h-2.5c-1.6,0-2.9,1.3-2.9,2.9v8
		c0,1.6,1.3,2.9,2.9,2.9h4.1c1,3.1,2.8,5.8,5.2,8.1l0,1.6c0,2.3-1.8,4.3-4.4,4.8L23,52.4c-4.6,0.8-7.9,4.5-7.9,8.8v13.4
		c0,2.4,0.7,4.7,2.2,6.7l5.1,6.4V88H5.5c-0.6,0-1,0.4-1,1s0.4,1,1,1h16.9h45.2h16.9c0.6,0,1-0.4,1-1S85.1,88,84.5,88z M71.1,80.2
		l-3.5,4.5V70h5.3v4.7C72.9,76.7,72.3,78.6,71.1,80.2z M58.3,40.3c0.3-0.5,0.6-1.1,0.9-1.7c0.3-0.6,0.5-1.2,0.7-1.9h0.5
		C60.2,38.1,59.4,39.4,58.3,40.3z M64.1,24.9c0.5,0,0.9,0.4,0.9,0.9v8c0,0.5-0.4,0.9-0.9,0.9h-3.6c0.2-0.9,0.3-1.7,0.4-2.6l0.5-7.1
		L64.1,24.9L64.1,24.9z M57.9,8.2C58,8,58.1,7.7,58.2,7.5c1.9,3,2.7,7.1,2.1,12.4c0,0,0,0,0,0C57.2,17.4,55,14.7,57.9,8.2z
		 M32.3,7.1C35,3.9,39.7,2,45.2,2c5.1,0,9,1.3,11.6,3.8c-0.2,0.5-0.5,0.9-0.7,1.4C51.2,16.3,42,20.7,29.7,19.8
		C28.8,14.5,29.7,10.2,32.3,7.1z M25.9,34.7c-0.5,0-0.9-0.4-0.9-0.9v-8c0-0.5,0.4-0.9,0.9-0.9h2.6l0.5,7.1c0.1,0.9,0.2,1.8,0.4,2.6
		L25.9,34.7L25.9,34.7z M31.1,31.9l-0.7-10c10.4,0.6,18.7-2.5,24.3-8.9c-0.2,4.5,2.4,7,5,9l-0.7,9.9c-0.2,2-0.7,4-1.5,5.8
		c-0.4,1-1,1.9-1.6,2.8c-0.2,0.4-0.5,0.7-0.8,1c-0.1,0-0.3,0-0.4,0h-5.8c-0.6,0-1,0.4-1,1s0.4,1,1,1h4.2c-1.7,1.5-3.6,2.7-5.8,3.5
		c-1.5,0.5-3.1,0.5-4.6,0C36.2,44.7,31.7,38.8,31.1,31.9z M37.2,46.4L37.2,46.4c1.5,1,3.1,1.9,4.8,2.5c1,0.3,2,0.5,3,0.5
		c1,0,2-0.2,3-0.5c1.7-0.6,3.3-1.5,4.8-2.6v0c0,2.3,1.2,4.4,3.2,5.6c-7.3,6.7-14.5,6.7-21.9,0C36,50.7,37.2,48.7,37.2,46.4z
		 M23.4,54.4l7.8-1.3c0.3-0.1,0.6-0.1,0.9-0.2C36.4,57,40.7,59,45,59c4.3,0,8.6-2.1,12.9-6.1c0.3,0.1,0.6,0.2,0.9,0.2l7.8,1.3
		c3.6,0.6,6.3,3.5,6.3,6.9V68h-5.3v-1.6c0-2.8-2.3-5.1-5.1-5.1h-35c-2.8,0-5.1,2.3-5.1,5.1V68h-5.3v-6.7
		C17.1,57.9,19.7,55,23.4,54.4z M18.9,80.2c-1.2-1.6-1.8-3.5-1.8-5.5V70h5.3v14.6L18.9,80.2z M24.4,88V66.4c0-1.7,1.4-3.1,3.1-3.1
		h35c1.7,0,3.1,1.4,3.1,3.1V88H24.4z"/>
</g>
</svg>
