<?xml version="1.0" encoding="utf-8"?>
<!-- Generator: Adobe Illustrator 27.1.1, SVG Export Plug-In . SVG Version: 6.00 Build 0)  -->
<svg version="1.1" id="Layer_1" xmlns="http://www.w3.org/2000/svg" xmlns:xlink="http://www.w3.org/1999/xlink" x="0px" y="0px"
	 viewBox="0 0 256 256" style="enable-background:new 0 0 256 256;" xml:space="preserve">
<style type="text/css">
	.st0{fill:#00F6FF;}
</style>
<g transform="translate(1.4065934065934016 1.4065934065934016) scale(2.81 2.81)">
	<path class="st0" d="M87.99,0H69.34c-1.79,0-2.68,2.16-1.42,3.42l5.79,5.8L39.9,43.04L28.06,31.2l-3.17-3.17
		c-1.07-1.07-2.82-1.07-3.89,0L0.81,48.21c-1.07,1.07-1.07,2.81,0,3.89l3.17,3.17c1.07,1.07,2.82,1.07,3.89,0L22.94,40.2L37.93,55.2
		c1.07,1.07,2.81,1.07,3.89,0l1.61-1.61c0.08-0.07,0.17-0.12,0.25-0.2l37.1-37.1l5.79,5.8c1.26,1.26,3.42,0.37,3.42-1.42V2.01
		C90,0.9,89.1,0,87.99,0z"/>
	<path class="st0" d="M65.63,37.8v49.45c0,1.52,1.23,2.75,2.75,2.75h8.78c1.52,0,2.75-1.23,2.75-2.75V23.52L65.63,37.8z"/>
	<path class="st0" d="M47.12,56.31v30.94c0,1.52,1.23,2.75,2.75,2.75h8.78c1.52,0,2.75-1.23,2.75-2.75V42.03L47.12,56.31z"/>
	<path class="st0" d="M39.88,60.5c-1.94,0-3.76-0.75-5.13-2.12l-6.15-6.15v35.02c0,1.52,1.23,2.75,2.75,2.75h8.78
		c1.52,0,2.75-1.23,2.75-2.75V59.84C41.95,60.27,40.93,60.5,39.88,60.5z"/>
	<path class="st0" d="M22.94,46.57L11.05,58.45c-0.3,0.3-0.62,0.56-0.96,0.8v28c0,1.52,1.23,2.75,2.75,2.75h8.78
		c1.52,0,2.75-1.23,2.75-2.75V48L22.94,46.57z"/>
</g>
</svg>
