<?xml version="1.0" encoding="utf-8"?>
<!-- Generator: Adobe Illustrator 27.1.1, SVG Export Plug-In . SVG Version: 6.00 Build 0)  -->
<svg version="1.1" id="Layer_1" xmlns="http://www.w3.org/2000/svg" xmlns:xlink="http://www.w3.org/1999/xlink" x="0px" y="0px"
	 viewBox="0 0 256 256" style="enable-background:new 0 0 256 256;" xml:space="preserve">
<style type="text/css">
	.st0{fill:#F58614;}
</style>
<g transform="translate(1.4065934065934016 1.4065934065934016) scale(2.81 2.81)">
	<path class="st0" d="M88,0H69.3c-1.8,0-2.7,2.2-1.4,3.4l5.8,5.8L39.9,43L28.1,31.2L24.9,28C23.8,27,22.1,27,21,28L0.8,48.2
		c-1.1,1.1-1.1,2.8,0,3.9L4,55.3c1.1,1.1,2.8,1.1,3.9,0l15.1-15.1l15,15c1.1,1.1,2.8,1.1,3.9,0l1.6-1.6c0.1-0.1,0.2-0.1,0.2-0.2
		l37.1-37.1l5.8,5.8c1.3,1.3,3.4,0.4,3.4-1.4V2C90,0.9,89.1,0,88,0z"/>
	<path class="st0" d="M65.6,37.8v49.5c0,1.5,1.2,2.8,2.8,2.8h8.8c1.5,0,2.8-1.2,2.8-2.8V23.5L65.6,37.8z"/>
	<path class="st0" d="M47.1,56.3v30.9c0,1.5,1.2,2.8,2.8,2.8h8.8c1.5,0,2.8-1.2,2.8-2.8V42L47.1,56.3z"/>
	<path class="st0" d="M39.9,60.5c-1.9,0-3.8-0.8-5.1-2.1l-6.1-6.2v35c0,1.5,1.2,2.8,2.8,2.8h8.8c1.5,0,2.8-1.2,2.8-2.8V59.8
		C42,60.3,40.9,60.5,39.9,60.5z"/>
	<path class="st0" d="M22.9,46.6L11.1,58.5c-0.3,0.3-0.6,0.6-1,0.8v28c0,1.5,1.2,2.8,2.8,2.8h8.8c1.5,0,2.8-1.2,2.8-2.8V48
		L22.9,46.6z"/>
</g>
</svg>
