<?xml version="1.0" encoding="utf-8"?>
<!-- Generator: Adobe Illustrator 27.1.1, SVG Export Plug-In . SVG Version: 6.00 Build 0)  -->
<svg version="1.1" id="Layer_1" xmlns="http://www.w3.org/2000/svg" xmlns:xlink="http://www.w3.org/1999/xlink" x="0px" y="0px"
	 viewBox="0 0 256 256" style="enable-background:new 0 0 256 256;" xml:space="preserve">
<style type="text/css">
	.st0{fill:#00F6FF;}
</style>
<g transform="translate(1.4065934065934016 1.4065934065934016) scale(2.81 2.81)">
	<path class="st0" d="M72.7,74.8c-3.7,0-6.7-3-6.7-6.7v-3.3c0-3.7,3-6.7,6.7-6.7s6.7,3,6.7,6.7v3.3C79.4,71.9,76.4,74.8,72.7,74.8z
		 M72.7,60.2c-2.6,0-4.7,2.1-4.7,4.7v3.3c0,2.6,2.1,4.7,4.7,4.7s4.7-2.1,4.7-4.7v-3.3C77.4,62.3,75.3,60.2,72.7,60.2z"/>
	<path class="st0" d="M81.6,90H63.8c-0.6,0-1-0.4-1-1v-6.3c0-5.5,4.4-9.9,9.9-9.9s9.9,4.4,9.9,9.9V89C82.6,89.6,82.2,90,81.6,90z
		 M64.8,88h15.8v-5.3c0-4.4-3.5-7.9-7.9-7.9s-7.9,3.5-7.9,7.9L64.8,88L64.8,88z"/>
	<path class="st0" d="M17.3,74.8c-3.7,0-6.7-3-6.7-6.7v-3.3c0-3.7,3-6.7,6.7-6.7s6.7,3,6.7,6.7v3.3C24,71.9,21,74.8,17.3,74.8z
		 M17.3,60.2c-2.6,0-4.7,2.1-4.7,4.7v3.3c0,2.6,2.1,4.7,4.7,4.7s4.7-2.1,4.7-4.7v-3.3C22,62.3,19.9,60.2,17.3,60.2z"/>
	<path class="st0" d="M26.2,90H8.4c-0.6,0-1-0.4-1-1v-6.3c0-5.5,4.4-9.9,9.9-9.9s9.9,4.4,9.9,9.9V89C27.2,89.6,26.8,90,26.2,90z
		 M9.4,88h15.8v-5.3c0-4.4-3.5-7.9-7.9-7.9s-7.9,3.5-7.9,7.9V88z"/>
	<path class="st0" d="M30.8,56.2c-0.1,0-0.3,0-0.4-0.1c-2.5-1-3.7-3.9-2.6-6.4c0.5-1.3-0.2-2.2-0.5-2.5c-0.3-0.3-1.2-1-2.5-0.5
		c-1.2,0.5-2.5,0.5-3.7,0c-1.2-0.5-2.1-1.4-2.6-2.6L15.8,38c-1-2.5,0.2-5.3,2.6-6.4c1.3-0.5,1.4-1.7,1.4-2.1c0-0.5-0.1-1.6-1.4-2.1
		c-1.2-0.5-2.1-1.4-2.6-2.6c-0.5-1.2-0.5-2.5,0-3.7l2.5-6.1c0.5-1.2,1.4-2.1,2.6-2.6c1.2-0.5,2.5-0.5,3.7,0c1.3,0.5,2.2-0.2,2.5-0.5
		s1-1.2,0.5-2.5c-0.5-1.2-0.5-2.5,0-3.7s1.4-2.1,2.6-2.6l6.1-2.5c1.2-0.5,2.5-0.5,3.7,0c1.2,0.5,2.1,1.4,2.6,2.6
		c0.5,1.3,1.7,1.4,2.1,1.4c0.5,0,1.6-0.1,2.1-1.4c1-2.5,3.9-3.7,6.4-2.6l6.1,2.5c1.2,0.5,2.1,1.4,2.6,2.6s0.5,2.5,0,3.7
		c-0.5,1.3,0.2,2.2,0.5,2.5c0.3,0.3,1.2,1,2.5,0.5c2.5-1,5.3,0.2,6.4,2.6l2.5,6.1c0.5,1.2,0.5,2.5,0,3.7c-0.5,1.2-1.4,2.1-2.6,2.6
		c-1.3,0.5-1.4,1.7-1.4,2.1c0,0.5,0.1,1.6,1.4,2.1c2.5,1,3.7,3.9,2.6,6.4l-2.5,6.1c-1,2.5-3.9,3.7-6.4,2.6c-1.3-0.5-2.2,0.2-2.5,0.5
		c-0.3,0.3-1,1.2-0.5,2.5c1,2.5-0.2,5.3-2.6,6.4c-0.5,0.2-1.1,0-1.3-0.5c-0.2-0.5,0-1.1,0.5-1.3c1.5-0.6,2.2-2.3,1.6-3.8
		c-0.8-2-0.1-3.7,0.9-4.7c0.5-0.5,2.2-2,4.7-0.9c1.5,0.6,3.2-0.1,3.8-1.6l2.5-6.1c0.6-1.5-0.1-3.1-1.6-3.8c-2-0.8-2.7-2.6-2.7-4
		s0.7-3.2,2.7-4c0.7-0.3,1.3-0.8,1.6-1.6c0.3-0.7,0.3-1.5,0-2.2l-2.5-6.1c-0.6-1.5-2.3-2.2-3.8-1.6c-2.5,1-4.2-0.5-4.7-0.9
		c-0.5-0.5-2-2.2-0.9-4.7c0.3-0.7,0.3-1.5,0-2.2c-0.3-0.7-0.8-1.3-1.6-1.6l-6.1-2.5c-1.5-0.6-3.2,0.1-3.8,1.6c-0.8,2-2.6,2.7-4,2.7
		c-1.4,0-3.2-0.7-4-2.7c-0.3-0.7-0.8-1.3-1.6-1.6c-0.7-0.3-1.5-0.3-2.2,0l-6.1,2.5c-0.7,0.3-1.3,0.8-1.6,1.6c-0.3,0.7-0.3,1.5,0,2.2
		c0.8,2,0.1,3.7-0.9,4.7c-0.5,0.5-2.2,2-4.7,0.9c-0.7-0.3-1.5-0.3-2.2,0c-0.7,0.3-1.3,0.8-1.6,1.6l-2.5,6.1c-0.3,0.7-0.3,1.5,0,2.2
		c0.3,0.7,0.8,1.3,1.6,1.6c2,0.8,2.7,2.6,2.7,4c0,1.4-0.7,3.2-2.7,4c-1.5,0.6-2.2,2.3-1.6,3.8l2.5,6.1c0.3,0.7,0.8,1.3,1.6,1.6
		c0.7,0.3,1.5,0.3,2.2,0c2-0.8,3.7-0.1,4.7,0.9c1,1,1.7,2.7,0.9,4.7c-0.6,1.5,0.1,3.2,1.6,3.8c0.5,0.2,0.8,0.8,0.5,1.3
		C31.5,56,31.2,56.2,30.8,56.2z M45,41.2c-6.4,0-11.7-5.2-11.7-11.7S38.5,17.8,45,17.8s11.7,5.2,11.7,11.7S51.4,41.2,45,41.2z
		 M45,19.8c-5.3,0-9.7,4.4-9.7,9.7s4.4,9.7,9.7,9.7c5.3,0,9.7-4.4,9.7-9.7S50.3,19.8,45,19.8z"/>
	<path class="st0" d="M45.3,69.2c-4.8,0-8.8-3.9-8.8-8.8v-4.6c0-4.8,3.9-8.8,8.8-8.8s8.8,3.9,8.8,8.8v4.6
		C54.1,65.2,50.2,69.2,45.3,69.2z M45.3,49.1c-3.7,0-6.8,3-6.8,6.8v4.6c0,3.7,3,6.8,6.8,6.8s6.8-3,6.8-6.8v-4.6
		C52.1,52.1,49.1,49.1,45.3,49.1z"/>
	<path class="st0" d="M57.6,90H33.1c-0.6,0-1-0.4-1-1v-8.6c0-7.3,5.9-13.2,13.2-13.2s13.2,5.9,13.2,13.2V89
		C58.6,89.6,58.1,90,57.6,90z M34.1,88h22.5v-7.6c0-6.2-5-11.2-11.2-11.2c-6.2,0-11.2,5-11.2,11.2L34.1,88L34.1,88z"/>
</g>
</svg>
