<?xml version="1.0" encoding="UTF-8" standalone="no"?>
<svg
   xmlns:dc="http://purl.org/dc/elements/1.1/"
   xmlns:cc="http://creativecommons.org/ns#"
   xmlns:rdf="http://www.w3.org/1999/02/22-rdf-syntax-ns#"
   xmlns:svg="http://www.w3.org/2000/svg"
   xmlns="http://www.w3.org/2000/svg"
   viewBox="0 0 402.88934 343.11066"
   height="343.11066"
   width="402.88934"
   xml:space="preserve"
   id="svg2"
   version="1.1"><metadata
     id="metadata8"><rdf:RDF><cc:Work
         rdf:about=""><dc:format>image/svg+xml</dc:format><dc:type
           rdf:resource="http://purl.org/dc/dcmitype/StillImage" /></cc:Work></rdf:RDF></metadata><defs
     id="defs6"><clipPath
       id="clipPath18"
       clipPathUnits="userSpaceOnUse"><path
         id="path16"
         d="M 0,257.333 H 302.167 V 0 H 0 Z" /></clipPath><clipPath
       id="clipPath26"
       clipPathUnits="userSpaceOnUse"><path
         id="path24"
         d="M -993.333,257.333 H -20 V 0 h -973.333 z" /></clipPath><clipPath
       id="clipPath34"
       clipPathUnits="userSpaceOnUse"><path
         id="path32"
         d="M -742.327,262.864 H -37.334 V -11.348 h -704.993 z" /></clipPath><clipPath
       id="clipPath42"
       clipPathUnits="userSpaceOnUse"><path
         id="path40"
         d="M -742.327,262.865 H -37.3607 V -11.3463 H -742.327 Z" /></clipPath><clipPath
       id="clipPath46"
       clipPathUnits="userSpaceOnUse"><path
         id="path44"
         d="m -184.031,262.865 h 73.28 V -11.3463 h -73.28 z" /></clipPath><clipPath
       id="clipPath50"
       clipPathUnits="userSpaceOnUse"><path
         id="path48"
         d="m -110.763,262.865 h 73.4023 V -11.3463 h -73.4023 z" /></clipPath><clipPath
       id="clipPath90"
       clipPathUnits="userSpaceOnUse"><path
         id="path88"
         d="M 0,257.333 H 302.167 V 0 H 0 Z" /></clipPath></defs><g
     transform="matrix(1.3333333,0,0,-1.3333333,0,343.11067)"
     id="g10"><g
       id="g12"><g
         clip-path="url(#clipPath18)"
         id="g14"><g
           id="g20"><g
             clip-path="url(#clipPath26)"
             id="g22"><g
               id="g28"><g
                 clip-path="url(#clipPath34)"
                 id="g30"><g
                   id="g36"><g
                     id="g38" /><g
                     id="g78"><g
                       id="g76"
                       clip-path="url(#clipPath42)"><g
                         id="g62"><g
                           id="g52" /><g
                           id="g60"><g
                             id="g58"
                             clip-path="url(#clipPath46)"><text
                               id="text56"
                               style="font-variant:normal;font-weight:normal;font-stretch:normal;font-size:253.0809021px;font-family:'Bauhaus 93';-inkscape-font-specification:Bauhaus93;writing-mode:lr-tb;fill:#ffffff;fill-opacity:1;fill-rule:nonzero;stroke:none"
                               transform="matrix(1,0,0,-1,-184.0303,51.9229)"><tspan
                                 id="tspan54"
                                 y="0"
                                 x="0">l</tspan></text>
</g></g></g><g
                         id="g74"><g
                           id="g64" /><g
                           id="g72"><g
                             id="g70"
                             clip-path="url(#clipPath50)"><text
                               id="text68"
                               style="font-variant:normal;font-weight:normal;font-stretch:normal;font-size:253.0809021px;font-family:'Bauhaus 93';-inkscape-font-specification:Bauhaus93;writing-mode:lr-tb;fill:#ffffff;fill-opacity:1;fill-rule:nonzero;stroke:none"
                               transform="matrix(1,0,0,-1,-110.7632,51.9229)"><tspan
                                 id="tspan66"
                                 y="0"
                                 x="0">i</tspan></text>
</g></g></g></g></g></g></g></g></g></g></g></g><text
       id="text82"
       style="font-variant:normal;font-weight:normal;font-stretch:normal;font-size:101.35749817px;font-family:'Bauhaus 93';-inkscape-font-specification:Bauhaus93;writing-mode:lr-tb;fill:#ffffff;fill-opacity:1;fill-rule:nonzero;stroke:none"
       transform="matrix(1,0,0,-1,10.3174,33.5059)"><tspan
         id="tspan80"
         y="0"
         x="0 65.375587 124.9738 163.99643 223.59465 252.93764">Kavali</tspan></text>
<g
       id="g84"><g
         clip-path="url(#clipPath90)"
         id="g86"><g
           transform="translate(159.8047,156.707)"
           id="g92"><path
             id="path94"
             style="fill:#ffffff;fill-opacity:1;fill-rule:nonzero;stroke:none"
             d="m 0,0 c 5.822,4.352 11.569,8.649 17.316,12.945 17.309,12.938 34.618,25.875 51.928,38.811 1.722,1.287 3.4,2.639 5.182,3.836 4.618,3.101 10.437,1.044 11.961,-4.278 0.864,-3.014 0.109,-5.803 -2.323,-7.798 -3.291,-2.7 -6.761,-5.184 -10.173,-7.735 C 50.588,18.36 27.26,0.974 3.995,-16.497 0.1,-19.422 -4.614,-18.95 -7.723,-15.19 -14.845,-6.578 -22.03,1.98 -29.19,10.56 c -1.378,1.651 -2.778,3.285 -4.133,4.955 -3.595,4.432 -2.089,10.508 3.151,12.477 2.902,1.09 5.722,0.62 7.856,-1.622 2.695,-2.832 5.131,-5.913 7.648,-8.913 C -9.905,11.778 -5.165,6.081 -0.413,0.393 -0.318,0.279 -0.197,0.186 0,0" /></g><g
           transform="translate(132.5432,183.4577)"
           id="g96"><path
             id="path98"
             style="fill:#ffffff;fill-opacity:1;fill-rule:nonzero;stroke:none"
             d="m 0,0 c -0.831,0 -1.615,-0.195 -2.277,-0.444 -1.92,-0.721 -3.251,-2.128 -3.749,-3.963 -0.519,-1.912 -0.022,-3.988 1.363,-5.695 0.902,-1.113 1.845,-2.233 2.757,-3.317 0.454,-0.538 0.908,-1.077 1.359,-1.618 2.047,-2.453 4.096,-4.904 6.145,-7.355 5.034,-6.022 10.239,-12.249 15.327,-18.402 2.467,-2.983 6.097,-3.383 9.251,-1.015 16.551,12.43 33.412,25.023 49.717,37.202 6.728,5.025 13.456,10.051 20.182,15.079 0.816,0.61 1.636,1.216 2.456,1.823 2.547,1.885 5.182,3.834 7.653,5.861 2.294,1.882 2.21,4.254 1.735,5.912 -0.559,1.951 -1.89,3.438 -3.652,4.082 -1.803,0.659 -3.836,0.366 -5.576,-0.803 -1.208,-0.811 -2.354,-1.687 -3.568,-2.615 -0.512,-0.391 -1.024,-0.783 -1.54,-1.168 C 80.274,10.627 62.964,-2.31 45.655,-15.247 l -18.529,-13.852 -1.1,1.04 c -0.059,0.055 -0.109,0.1 -0.153,0.14 -0.123,0.11 -0.262,0.235 -0.404,0.406 -1.586,1.898 -3.169,3.795 -4.752,5.692 -3.164,3.793 -6.328,7.586 -9.503,11.37 -0.609,0.726 -1.213,1.457 -1.817,2.188 C 7.552,-6.032 5.645,-3.726 3.641,-1.621 2.48,-0.401 1.192,0 0,0 m 25.939,-46.932 c -2.886,0 -5.688,1.305 -7.788,3.844 -5.082,6.146 -10.284,12.369 -15.315,18.387 -2.049,2.452 -4.099,4.904 -6.147,7.358 -0.448,0.536 -0.898,1.071 -1.348,1.606 -0.923,1.096 -1.877,2.229 -2.8,3.367 -2.123,2.617 -2.867,5.864 -2.041,8.906 0.798,2.938 2.969,5.267 5.957,6.39 3.663,1.376 7.232,0.623 9.791,-2.066 2.09,-2.195 4.039,-4.551 5.923,-6.829 0.599,-0.725 1.197,-1.449 1.801,-2.168 3.177,-3.787 6.343,-7.582 9.509,-11.378 1.339,-1.604 2.677,-3.209 4.017,-4.812 L 43.5,-12.364 c 17.309,12.937 34.618,25.875 51.928,38.811 0.506,0.378 1.008,0.761 1.51,1.145 1.203,0.92 2.447,1.871 3.746,2.743 2.707,1.818 5.922,2.254 8.818,1.196 2.855,-1.043 4.998,-3.402 5.877,-6.472 1.075,-3.755 0.014,-7.285 -2.913,-9.686 -2.54,-2.084 -5.211,-4.06 -7.795,-5.971 C 103.857,8.798 103.042,8.195 102.23,7.589 95.504,2.56 88.775,-2.465 82.047,-7.491 65.743,-19.668 48.885,-32.26 32.337,-44.687 c -2.006,-1.507 -4.226,-2.245 -6.398,-2.245" /></g><g
           transform="translate(164.3925,225.2505)"
           id="g100"><path
             id="path102"
             style="fill:#ffffff;fill-opacity:1;fill-rule:evenodd;stroke:none"
             d="M 0,0 -1.974,2.783 C -3.012,3.931 -2.068,5.764 -0.533,5.57 18.591,3.161 35.311,-6.963 46.42,-21.585 c 1.068,-1.409 0.748,-3.428 -0.678,-4.475 l -9.334,-6.819 c -1.159,-0.849 -2.772,-0.587 -3.637,0.561 -8.268,11.022 -20.759,18.694 -35.07,20.615 -1.406,0.189 -1.969,1.914 -0.932,2.881 l 2.697,2.948 C 1.047,-4.395 1.452,-1.607 0,0" /></g><g
           transform="translate(225.0223,161.3736)"
           id="g104"><path
             id="path106"
             style="fill:#ffffff;fill-opacity:1;fill-rule:evenodd;stroke:none"
             d="m 0,0 c 0,-43.761 -40.162,-78.144 -85.642,-68.303 -23.666,5.121 -47.536,28.99 -52.657,52.662 -8.309,38.4 14.899,73.002 48.663,82.849 l -0.769,12.533 c -0.219,3.589 4.074,5.596 6.686,3.124 l 19.287,-18.252 c 1.576,-1.49 1.661,-3.967 0.198,-5.564 L -81.268,40.461 c -2.366,-2.585 -6.67,-1.058 -6.884,2.435 l -0.389,6.386 c -20.142,-7.583 -34.411,-27.159 -34.096,-50.03 0.395,-28.355 23.539,-51.498 51.888,-51.888 29.423,-0.411 53.394,23.314 53.394,52.636 0,1.388 -0.053,2.766 -0.16,4.128 -0.107,1.399 0.502,2.761 1.634,3.588 l 10.354,7.567 c 1.57,1.148 3.818,0.288 4.197,-1.618 C -0.454,9.243 0,4.672 0,0" /></g></g></g></g></svg>