<?xml version="1.0" encoding="utf-8"?>
<!-- Generator: Adobe Illustrator 27.1.1, SVG Export Plug-In . SVG Version: 6.00 Build 0)  -->
<svg version="1.1"
	 id="svg2" xmlns:svg="http://www.w3.org/2000/svg" xmlns:cc="http://creativecommons.org/ns#" xmlns:rdf="http://www.w3.org/1999/02/22-rdf-syntax-ns#" xmlns:dc="http://purl.org/dc/elements/1.1/"
	 xmlns="http://www.w3.org/2000/svg" xmlns:xlink="http://www.w3.org/1999/xlink" x="0px" y="0px" viewBox="0 0 1440 838.7"
	 style="enable-background:new 0 0 1440 838.7;" xml:space="preserve">
<style type="text/css">
	.st0{clip-path:url(#SVGID_00000151517090111147662240000014863553000440104851_);}
	.st1{fill:#F58614;}
	.st2{fill-rule:evenodd;clip-rule:evenodd;fill:#3872C1;}
</style>
<g id="g10" transform="matrix(1.3333333,0,0,-1.3333333,0,838.66667)">
	<g id="g16">
		<g>
			<defs>
				<rect id="SVGID_1_" x="-180" y="-104.8" width="1440" height="838.7"/>
			</defs>
			<clipPath id="SVGID_00000034768266827870503310000016749341121091940996_">
				<use xlink:href="#SVGID_1_"  style="overflow:visible;"/>
			</clipPath>
			<g id="g18" style="clip-path:url(#SVGID_00000034768266827870503310000016749341121091940996_);">
				<g id="g24" transform="translate(553.4902,346.6395)">
					<path id="path26" class="st1" d="M0,0c10.9,8.2,21.7,16.2,32.4,24.2c32.4,24.2,64.8,48.5,97.2,72.7c3.2,2.4,6.4,4.9,9.7,7.2
						c8.6,5.8,19.5,2,22.4-8c1.6-5.6,0.2-10.9-4.4-14.6c-6.2-5.1-12.7-9.7-19.1-14.5C94.7,34.4,51,1.8,7.5-30.9
						c-7.3-5.5-16.1-4.6-21.9,2.4C-27.8-12.3-41.3,3.7-54.7,19.8c-2.6,3.1-5.2,6.2-7.7,9.3c-6.7,8.3-3.9,19.7,5.9,23.4
						c5.4,2,10.7,1.2,14.7-3c5-5.3,9.6-11.1,14.3-16.7c8.9-10.6,17.8-21.3,26.7-32C-0.6,0.5-0.4,0.3,0,0"/>
				</g>
				<g id="g28" transform="translate(502.4382,396.7353)">
					<path id="path30" class="st1" d="M0,0c-1.6,0-3-0.4-4.3-0.8c-3.6-1.4-6.1-4-7-7.4c-1-3.6,0-7.5,2.6-10.7
						c1.7-2.1,3.5-4.2,5.2-6.2c0.9-1,1.7-2,2.5-3c3.8-4.6,7.7-9.2,11.5-13.8c9.4-11.3,19.2-22.9,28.7-34.5
						c4.6-5.6,11.4-6.3,17.3-1.9c31,23.3,62.6,46.9,93.1,69.7c12.6,9.4,25.2,18.8,37.8,28.2c1.5,1.1,3.1,2.3,4.6,3.4
						c4.8,3.5,9.7,7.2,14.3,11c4.3,3.5,4.1,8,3.2,11.1c-1,3.7-3.5,6.4-6.8,7.6c-3.4,1.2-7.2,0.7-10.4-1.5c-2.3-1.5-4.4-3.2-6.7-4.9
						c-1-0.7-1.9-1.5-2.9-2.2c-32.4-24.2-64.8-48.5-97.2-72.7L50.8-54.5l-2.1,1.9c-0.1,0.1-0.2,0.2-0.3,0.3
						c-0.2,0.2-0.5,0.4-0.8,0.8c-3,3.6-5.9,7.1-8.9,10.7C32.9-33.8,26.9-26.7,21-19.6c-1.1,1.4-2.3,2.7-3.4,4.1
						C14.1-11.3,10.6-7,6.8-3C4.6-0.8,2.2,0,0,0 M48.6-87.9c-5.4,0-10.7,2.4-14.6,7.2C24.5-69.2,14.7-57.5,5.3-46.3
						c-3.8,4.6-7.7,9.2-11.5,13.8c-0.8,1-1.7,2-2.5,3c-1.7,2.1-3.5,4.2-5.2,6.3c-4,4.9-5.4,11-3.8,16.7c1.5,5.5,5.6,9.9,11.2,12
						C0.2,8.1,6.9,6.6,11.7,1.6c3.9-4.1,7.6-8.5,11.1-12.8c1.1-1.4,2.2-2.7,3.4-4.1C32.1-22.3,38-29.4,44-36.5c2.5-3,5-6,7.5-9
						l30,22.4c32.4,24.2,64.8,48.5,97.2,72.7c0.9,0.7,1.9,1.4,2.8,2.1c2.3,1.7,4.6,3.5,7,5.1c5.1,3.4,11.1,4.2,16.5,2.2
						c5.3-2,9.4-6.4,11-12.1c2-7,0-13.6-5.5-18.1c-4.8-3.9-9.8-7.6-14.6-11.2c-1.5-1.1-3.1-2.3-4.6-3.4
						C178.8,4.8,166.2-4.6,153.6-14c-30.5-22.8-62.1-46.4-93.1-69.7C56.8-86.5,52.6-87.9,48.6-87.9"/>
				</g>
				<g id="g32" transform="translate(562.0818,475)">
					<path id="path34" class="st2" d="M0,0l-3.7,5.2c-1.9,2.1-0.2,5.6,2.7,5.2C34.8,5.9,66.1-13,86.9-40.4c2-2.6,1.4-6.4-1.3-8.4
						L68.2-61.6c-2.2-1.6-5.2-1.1-6.8,1c-15.5,20.6-38.9,35-65.7,38.6C-6.9-21.6-8-18.3-6-16.5l5,5.5C2-8.2,2.7-3,0,0"/>
				</g>
				<g id="g36" transform="translate(675.6223,355.3786)">
					<path id="path38" class="st2" d="M0,0c0-82-75.2-146.3-160.4-127.9c-44.3,9.6-89,54.3-98.6,98.6
						c-15.6,71.9,27.9,136.7,91.1,155.2l-1.4,23.5c-0.4,6.7,7.6,10.5,12.5,5.9l36.1-34.2c2.9-2.8,3.1-7.4,0.4-10.4l-31.9-34.8
						c-4.4-4.8-12.5-2-12.9,4.6l-0.7,12c-37.7-14.2-64.4-50.9-63.9-93.7c0.7-53.1,44.1-96.4,97.2-97.2c55.1-0.8,100,43.7,100,98.6
						c0,2.6-0.1,5.2-0.3,7.7c-0.2,2.6,0.9,5.2,3.1,6.7l19.4,14.2c2.9,2.2,7.2,0.5,7.9-3C-0.8,17.3,0,8.8,0,0"/>
				</g>
			</g>
		</g>
	</g>
</g>
</svg>
