<?xml version="1.0" encoding="UTF-8" standalone="no"?>
<svg
   xmlns:dc="http://purl.org/dc/elements/1.1/"
   xmlns:cc="http://creativecommons.org/ns#"
   xmlns:rdf="http://www.w3.org/1999/02/22-rdf-syntax-ns#"
   xmlns:svg="http://www.w3.org/2000/svg"
   xmlns="http://www.w3.org/2000/svg"
   viewBox="0 0 973.33331 257.33334"
   height="257.33334"
   width="973.33331"
   xml:space="preserve"
   id="svg2"
   version="1.1"><metadata
     id="metadata8"><rdf:RDF><cc:Work
         rdf:about=""><dc:format>image/svg+xml</dc:format><dc:type
           rdf:resource="http://purl.org/dc/dcmitype/StillImage" /></cc:Work></rdf:RDF></metadata><defs
     id="defs6"><clipPath
       id="clipPath18"
       clipPathUnits="userSpaceOnUse"><path
         id="path16"
         d="M 0,193 H 730 V 0 H 0 Z" /></clipPath><clipPath
       id="clipPath26"
       clipPathUnits="userSpaceOnUse"><path
         id="path24"
         d="M 188.255,197.148 H 717 V -8.51074 H 188.255 Z" /></clipPath><linearGradient
       id="linearGradient64"
       spreadMethod="pad"
       gradientTransform="matrix(-69.377388,58.667499,-58.667499,-69.377388,114.66753,47.53307)"
       gradientUnits="userSpaceOnUse"
       y2="0"
       x2="1"
       y1="0"
       x1="0"><stop
         id="stop60"
         offset="0"
         style="stop-opacity:1;stop-color:#fff000" /><stop
         id="stop62"
         offset="1"
         style="stop-opacity:1;stop-color:#bc599c" /></linearGradient><linearGradient
       id="linearGradient84"
       spreadMethod="pad"
       gradientTransform="matrix(-39.0046,68.418503,-68.418503,-39.0046,74.973724,87.100273)"
       gradientUnits="userSpaceOnUse"
       y2="0"
       x2="1"
       y1="0"
       x1="0"><stop
         id="stop80"
         offset="0"
         style="stop-opacity:1;stop-color:#d513d8" /><stop
         id="stop82"
         offset="1"
         style="stop-opacity:1;stop-color:#ef280e" /></linearGradient><linearGradient
       id="linearGradient104"
       spreadMethod="pad"
       gradientTransform="matrix(-53.7117,-49.874996,49.874996,-53.7117,133.61571,135.03116)"
       gradientUnits="userSpaceOnUse"
       y2="0"
       x2="1"
       y1="0"
       x1="0"><stop
         id="stop100"
         offset="0"
         style="stop-opacity:1;stop-color:#23f5fc" /><stop
         id="stop102"
         offset="1"
         style="stop-opacity:1;stop-color:#eb46cb" /></linearGradient></defs><g
     transform="matrix(1.3333333,0,0,-1.3333333,0,257.33333)"
     id="g10"><g
       id="g12"><g
         clip-path="url(#clipPath18)"
         id="g14"><g
           id="g20"><g
             id="g22" /><g
             id="g34"><g
               id="g32"
               clip-path="url(#clipPath26)"><text
                 id="text30"
                 style="font-variant:normal;font-weight:normal;font-stretch:normal;font-size:189.81069946px;font-family:'Bauhaus 93';-inkscape-font-specification:Bauhaus93;writing-mode:lr-tb;fill:#ffffff;fill-opacity:1;fill-rule:nonzero;stroke:none"
                 transform="matrix(1,0,0,-1,188.2549,38.9424)"><tspan
                   id="tspan28"
                   y="0"
                   x="0 122.4279 234.03659 307.11371 418.72241 473.67261">Kavali</tspan></text>
</g></g></g><g
           transform="translate(87.89,169.2088)"
           id="g36"><path
             id="path38"
             style="fill:#000000;fill-opacity:1;fill-rule:evenodd;stroke:none"
             d="m 0,0 c 41.361,0 74.89,-33.529 74.89,-74.89 0,-41.361 -33.529,-74.89 -74.89,-74.89 -41.361,0 -74.89,33.529 -74.89,74.89 C -74.89,-33.529 -41.361,0 0,0" /></g><g
           transform="translate(87.89,169.2088)"
           id="g40"><path
             id="path42"
             style="fill:none;stroke:#ffffff;stroke-width:3;stroke-linecap:butt;stroke-linejoin:miter;stroke-miterlimit:10;stroke-dasharray:none;stroke-opacity:1"
             d="m 0,0 c 41.361,0 74.89,-33.529 74.89,-74.89 0,-41.361 -33.529,-74.89 -74.89,-74.89 -41.361,0 -74.89,33.529 -74.89,74.89 C -74.89,-33.529 -41.361,0 0,0 Z" /></g><g
           transform="translate(78.05,78.5288)"
           id="g44"><path
             id="path46"
             style="fill:#7385a1;fill-opacity:1;fill-rule:evenodd;stroke:none"
             d="M 0,0 V -31.36 H 31.36 Z" /></g></g></g><g
       id="g48"><g
         id="g50"><g
           id="g56"><g
             id="g58"><path
               id="path66"
               style="fill:url(#linearGradient64);stroke:none"
               d="m 47.21,77.509 30.33,-30.34 h 31.87 l -31.36,31.36 -1.03,1.03 -29.81,29.82 z" /></g></g></g></g><g
       id="g68"><g
         id="g70"><g
           id="g76"><g
             id="g78"><path
               id="path86"
               style="fill:url(#linearGradient84);stroke:none"
               d="m 47.21,137.919 v -28.54 l 29.8,-29.81 h 0.02 l 1.02,1.049 v 32.101 25.2 z" /></g></g></g></g><g
       id="g88"><g
         id="g90"><g
           id="g96"><g
             id="g98"><path
               id="path106"
               style="fill:url(#linearGradient104);stroke:none"
               d="M 106.71,141.389 78.05,112.719 V 80.618 l 59.38,60.771 z" /></g></g></g></g></g></svg>