<?xml version="1.0" encoding="utf-8"?>
<!-- Generator: Adobe Illustrator 27.1.1, SVG Export Plug-In . SVG Version: 6.00 Build 0)  -->
<svg version="1.1"
	 id="svg2" xmlns:dc="http://purl.org/dc/elements/1.1/" xmlns:rdf="http://www.w3.org/1999/02/22-rdf-syntax-ns#" xmlns:cc="http://creativecommons.org/ns#" xmlns:svg="http://www.w3.org/2000/svg"
	 xmlns="http://www.w3.org/2000/svg" xmlns:xlink="http://www.w3.org/1999/xlink" x="0px" y="0px" viewBox="0 0 1440 838.7"
	 style="enable-background:new 0 0 1440 838.7;" xml:space="preserve">
<style type="text/css">
	.st0{clip-path:url(#SVGID_00000091724652945624277420000009682132076127344265_);}
	.st1{fill:#F58614;}
	.st2{fill-rule:evenodd;clip-rule:evenodd;fill:#3872C1;}
	.st3{enable-background:new    ;}
	.st4{fill:#FFFFFF;}
</style>
<g id="g10" transform="matrix(1.3333333,0,0,-1.3333333,0,838.66667)">
	<g id="g16">
		<g>
			<g>
				<g>
					<g>
						<g>
							<g>
								<defs>
									<rect id="SVGID_1_" x="-2846.6" y="-1452.6" width="6068.1" height="3534.4"/>
								</defs>
								<clipPath id="SVGID_00000095336065412558784220000008622392337988586125_">
									<use xlink:href="#SVGID_1_"  style="overflow:visible;"/>
								</clipPath>
								<g id="g18" style="clip-path:url(#SVGID_00000095336065412558784220000008622392337988586125_);">
									<g id="g24" transform="translate(553.4902,346.6395)">
										<path id="path26" class="st1" d="M-352.5,0c10.9,8.2,21.7,16.2,32.4,24.2c32.4,24.2,64.8,48.5,97.2,72.7
											c3.2,2.4,6.4,4.9,9.7,7.2c8.6,5.8,19.5,2,22.4-8c1.6-5.6,0.2-10.9-4.4-14.6c-6.2-5.1-12.7-9.7-19.1-14.5
											C-257.8,34.4-301.5,1.8-345-30.9c-7.3-5.5-16.1-4.6-21.9,2.4c-13.4,16.2-26.9,32.2-40.3,48.3c-2.6,3.1-5.2,6.2-7.7,9.3
											c-6.7,8.3-3.9,19.7,5.9,23.4c5.4,2,10.7,1.2,14.7-3c5-5.3,9.6-11.1,14.3-16.7c8.9-10.6,17.8-21.3,26.7-32
											C-353.1,0.5-352.9,0.3-352.5,0"/>
									</g>
									<g id="g28" transform="translate(502.4382,396.7353)">
										<path id="path30" class="st1" d="M-352.5,0c-1.6,0-3-0.4-4.3-0.8c-3.6-1.4-6.1-4-7-7.4c-1-3.6,0-7.5,2.6-10.7
											c1.7-2.1,3.5-4.2,5.2-6.2c0.9-1,1.7-2,2.5-3c3.8-4.6,7.7-9.2,11.5-13.8c9.4-11.3,19.2-22.9,28.7-34.5
											c4.6-5.6,11.4-6.3,17.3-1.9c31,23.3,62.6,46.9,93.1,69.7c12.6,9.4,25.2,18.8,37.8,28.2c1.5,1.1,3.1,2.3,4.6,3.4
											c4.8,3.5,9.7,7.2,14.3,11c4.3,3.5,4.1,8,3.2,11.1c-1,3.7-3.5,6.4-6.8,7.6c-3.4,1.2-7.2,0.7-10.4-1.5
											c-2.3-1.5-4.4-3.2-6.7-4.9c-1-0.7-1.9-1.5-2.9-2.2c-32.4-24.2-64.8-48.5-97.2-72.7l-34.7-25.9l-2.1,1.9
											c-0.1,0.1-0.2,0.2-0.3,0.3c-0.2,0.2-0.5,0.4-0.8,0.8c-3,3.6-5.9,7.1-8.9,10.7c-5.8,7-11.8,14.1-17.7,21.2
											c-1.1,1.4-2.3,2.7-3.4,4.1c-3.5,4.2-7,8.5-10.8,12.5C-347.9-0.8-350.3,0-352.5,0 M-303.9-87.9c-5.4,0-10.7,2.4-14.6,7.2
											c-9.5,11.5-19.3,23.2-28.7,34.4c-3.8,4.6-7.7,9.2-11.5,13.8c-0.8,1-1.7,2-2.5,3c-1.7,2.1-3.5,4.2-5.2,6.3
											c-4,4.9-5.4,11-3.8,16.7c1.5,5.5,5.6,9.9,11.2,12c6.7,2.6,13.4,1.1,18.2-3.9c3.9-4.1,7.6-8.5,11.1-12.8
											c1.1-1.4,2.2-2.7,3.4-4.1c5.9-7,11.8-14.1,17.8-21.2c2.5-3,5-6,7.5-9l30,22.4c32.4,24.2,64.8,48.5,97.2,72.7
											c0.9,0.7,1.9,1.4,2.8,2.1c2.3,1.7,4.6,3.5,7,5.1c5.1,3.4,11.1,4.2,16.5,2.2c5.3-2,9.4-6.4,11-12.1c2-7,0-13.6-5.5-18.1
											c-4.8-3.9-9.8-7.6-14.6-11.2c-1.5-1.1-3.1-2.3-4.6-3.4c-12.5-9.4-25.1-18.8-37.7-28.2C-229.4-36.8-261-60.4-292-83.7
											C-295.7-86.5-299.9-87.9-303.9-87.9"/>
									</g>
									<g id="g32" transform="translate(562.0818,475)">
										<path id="path34" class="st2" d="M-352.5,0l-3.7,5.2c-1.9,2.1-0.2,5.6,2.7,5.2c35.8-4.5,67.1-23.4,87.9-50.8
											c2-2.6,1.4-6.4-1.3-8.4l-17.4-12.8c-2.2-1.6-5.2-1.1-6.8,1C-306.6-40-330-25.6-356.8-22c-2.6,0.4-3.7,3.7-1.7,5.5l5,5.5
											C-350.5-8.2-349.8-3-352.5,0"/>
									</g>
									<g id="g36" transform="translate(675.6223,355.3786)">
										<path id="path38" class="st2" d="M-352.5,0c0-82-75.2-146.3-160.4-127.9c-44.3,9.6-89,54.3-98.6,98.6
											c-15.6,71.9,27.9,136.7,91.1,155.2l-1.4,23.5c-0.4,6.7,7.6,10.5,12.5,5.9l36.1-34.2c2.9-2.8,3.1-7.4,0.4-10.4l-31.9-34.8
											c-4.4-4.8-12.5-2-12.9,4.6l-0.7,12c-37.7-14.2-64.4-50.9-63.9-93.7c0.7-53.1,44.1-96.4,97.2-97.2
											c55.1-0.8,100,43.7,100,98.6c0,2.6-0.1,5.2-0.3,7.7c-0.2,2.6,0.9,5.2,3.1,6.7l19.4,14.2c2.9,2.2,7.2,0.5,7.9-3
											C-353.3,17.3-352.5,8.8-352.5,0"/>
									</g>
								</g>
							</g>
						</g>
					</g>
				</g>
			</g>
		</g>
	</g>
</g>
<g class="st3">
	<path class="st4" d="M567.3,203.4v210.3h-62.5V203.4H567.3z M687.3,203.4l-55.5,95.4l55.2,115h-70.2l-47.6-116.2l53.9-94.1
		L687.3,203.4L687.3,203.4z"/>
	<path class="st4" d="M789.2,356.1v59.6c-4.7,0.8-9,1.2-12.9,1.2c-23.1,0-42.4-7.6-57.8-22.8c-15.4-15.2-23.1-34.3-23.1-57.2
		c0-22.3,7.8-41.2,23.3-56.7c15.6-15.5,34.5-23.3,56.8-23.3c24.9,0,44.4,7.3,58.8,21.8c14.3,14.5,21.5,34.4,21.5,59.5v75.3h-57.6
		v-71.2c0-8.1-2-14.6-5.9-19.4c-4-4.8-9.3-7.2-15.9-7.2c-6.1,0-11.3,2.2-15.7,6.6s-6.6,9.7-6.6,15.7c0,6.4,2,11.6,6,15.7
		s9.1,6.2,15.3,6.2C780.3,360.1,785,358.9,789.2,356.1z"/>
	<path class="st4" d="M1004.8,260.1L933,419.8l-70.9-159.6h55l16.3,41.4l17.9-41.4L1004.8,260.1L1004.8,260.1z"/>
	<path class="st4" d="M1096.3,356.1v59.6c-4.7,0.8-9,1.2-12.9,1.2c-23.1,0-42.4-7.6-57.8-22.8c-15.4-15.2-23.1-34.3-23.1-57.2
		c0-22.3,7.8-41.2,23.3-56.7c15.6-15.5,34.5-23.3,56.8-23.3c24.9,0,44.4,7.3,58.8,21.8c14.3,14.5,21.5,34.4,21.5,59.5v75.3h-57.7
		v-71.2c0-8.1-2-14.6-5.9-19.4c-4-4.8-9.3-7.2-15.9-7.2c-6.1,0-11.3,2.2-15.7,6.6c-4.4,4.4-6.6,9.7-6.6,15.7c0,6.4,2,11.6,6,15.7
		s9.1,6.2,15.3,6.2C1087.3,360.1,1092.1,358.9,1096.3,356.1z"/>
	<path class="st4" d="M1254.1,203.4v210.3h-57.6V203.4H1254.1z"/>
	<path class="st4" d="M1345.4,260.1v153.6h-57.6V260.1H1345.4z M1316.8,191.6c7.8,0,14.6,2.7,20.3,8.2c5.7,5.5,8.6,12,8.6,19.5
		c0,8-2.7,14.6-8.1,19.7s-12.3,7.7-20.7,7.7c-8.4,0-15.3-2.6-20.7-7.7c-5.4-5.1-8.1-11.7-8.1-19.7c0-7.5,2.8-14,8.5-19.5
		C1302.2,194.3,1308.9,191.6,1316.8,191.6z"/>
</g>
<text transform="matrix(1 0 0 1 543.8395 -160.8013)" class="st4" style="font-family:'Bauhaus93'; font-size:249.1235px;">Kavali</text>
<g class="st3">
	<path class="st4" d="M530.1,448c12.5,0,21.8,6.2,25.8,17h-6.6c-3.1-7.4-9.7-12.1-19.2-12.1c-12.2,0-21.6,9-21.6,23.7
		c0,14.6,9.4,23.6,21.6,23.6c9.5,0,16.1-4.6,19.2-11.9h6.6c-4,10.6-13.3,16.8-25.8,16.8c-15.5,0-27.4-11.7-27.4-28.5
		C502.8,459.7,514.6,448,530.1,448z"/>
	<path class="st4" d="M585.3,460.2c8.8,0,14.8,4.7,17.3,10.2v-9.6h5.6v43.7h-5.6v-9.7c-2.6,5.6-8.6,10.3-17.4,10.3
		c-11.9,0-20.8-8.9-20.8-22.6C564.5,468.9,573.3,460.2,585.3,460.2z M586.4,465.1c-9.2,0-16.2,6.4-16.2,17.5c0,11,7,17.7,16.2,17.7
		c9,0,16.2-6.7,16.2-17.6C602.6,471.8,595.3,465.1,586.4,465.1z"/>
	<path class="st4" d="M643.9,460.2c11.9,0,20.8,8.7,20.8,22.4c0,13.7-8.9,22.6-20.8,22.6c-8.7,0-14.8-4.8-17.4-10.2v30.2H621v-64.3
		h5.5v9.6C629.1,464.9,635.2,460.2,643.9,460.2z M642.8,465.1c-8.9,0-16.2,6.7-16.2,17.6c0,10.9,7.4,17.6,16.2,17.6
		c9.2,0,16.2-6.6,16.2-17.7C659,471.5,652,465.1,642.8,465.1z"/>
	<path class="st4" d="M673.8,448.5c0-2.4,1.8-4.1,4.1-4.1s4.1,1.7,4.1,4.1c0,2.4-1.8,4.2-4.1,4.2S673.8,450.9,673.8,448.5z
		 M675,460.9h5.6v43.7H675V460.9z"/>
	<path class="st4" d="M695,465.6h-6.1v-4.7h6.1v-11h5.7v11h12v4.7h-12v27.1c0,5.4,1.8,7,6.9,7h5.1v4.8h-6c-7.6,0-11.7-3.1-11.7-11.8
		V465.6z"/>
	<path class="st4" d="M740.2,460.2c8.8,0,14.8,4.7,17.3,10.2v-9.6h5.6v43.7h-5.6v-9.7c-2.6,5.6-8.6,10.3-17.4,10.3
		c-11.9,0-20.8-8.9-20.8-22.6C719.3,468.9,728.2,460.2,740.2,460.2z M741.2,465.1c-9.2,0-16.2,6.4-16.2,17.5c0,11,7,17.7,16.2,17.7
		c9,0,16.2-6.7,16.2-17.6C757.4,471.8,750.2,465.1,741.2,465.1z"/>
	<path class="st4" d="M775.8,445.3h5.6v59.2h-5.6V445.3z"/>
</g>
<g class="st3">
	<path class="st1" d="M822.9,441.3v71.2h-5.6v-71.2H822.9z"/>
</g>
<g class="st3">
	<path class="st4" d="M858.8,448.6h5.6v55.9h-5.6V448.6z"/>
	<path class="st4" d="M909.9,479.6c0-9.7-5.3-14.6-13.3-14.6c-8.2,0-13.8,5.1-13.8,15.8v23.8h-5.6v-43.7h5.6v7.4
		c2.8-5.4,8.4-8.2,14.9-8.2c9.9,0,17.8,6.1,17.8,18.9v25.6h-5.5V479.6z"/>
	<path class="st4" d="M929.4,465.6h-6.1v-4.7h6.1v-11h5.7v11h12v4.7h-12v27.1c0,5.4,1.8,7,6.9,7h5.1v4.8h-6
		c-7.6,0-11.7-3.1-11.7-11.8V465.6z"/>
	<path class="st4" d="M975.2,505.2c-12.4,0-21.4-8.6-21.4-22.5c0-13.9,8.9-22.5,21.4-22.5c12.8,0,20.6,9.1,20.6,20.2
		c0,1.8,0,2.9-0.2,4.4h-36.2c0.5,10.2,7.6,15.6,15.8,15.6c7.4,0,12.5-3.9,14.1-9.8h5.9C993.2,498.9,986.1,505.2,975.2,505.2z
		 M959.4,480.3h30.7c0.2-10.2-7.1-15.3-15.2-15.3C967,465,960.1,470.1,959.4,480.3z"/>
	<path class="st4" d="M1011.7,504.5h-5.6v-43.7h5.6v7.8c2.4-5.4,7.4-8.6,15-8.6v5.8h-1.5c-7.3,0-13.4,3.3-13.4,14.2V504.5z"/>
	<path class="st4" d="M1067.7,479.6c0-9.7-5.3-14.6-13.3-14.6c-8.2,0-13.8,5.1-13.8,15.8v23.8h-5.6v-43.7h5.6v7.4
		c2.8-5.4,8.4-8.2,14.9-8.2c9.9,0,17.8,6.1,17.8,18.9v25.6h-5.5V479.6z"/>
	<path class="st4" d="M1104,460.2c8.8,0,14.8,4.7,17.3,10.2v-9.6h5.6v43.7h-5.6v-9.7c-2.6,5.6-8.6,10.3-17.4,10.3
		c-11.9,0-20.8-8.9-20.8-22.6C1083.1,468.9,1092,460.2,1104,460.2z M1105,465.1c-9.2,0-16.2,6.4-16.2,17.5c0,11,7,17.7,16.2,17.7
		c9,0,16.2-6.7,16.2-17.6C1121.3,471.8,1114,465.1,1105,465.1z"/>
	<path class="st4" d="M1141.3,465.6h-6.1v-4.7h6.1v-11h5.7v11h12v4.7h-12v27.1c0,5.4,1.8,7,6.9,7h5.1v4.8h-6
		c-7.6,0-11.7-3.1-11.7-11.8V465.6z"/>
	<path class="st4" d="M1166.9,448.5c0-2.4,1.8-4.1,4.1-4.1s4.1,1.7,4.1,4.1c0,2.4-1.8,4.2-4.1,4.2S1166.9,450.9,1166.9,448.5z
		 M1168.1,460.9h5.6v43.7h-5.6V460.9z"/>
	<path class="st4" d="M1205.6,505.2c-12.3,0-21.7-8.6-21.7-22.5c0-13.9,9.6-22.5,21.8-22.5c12.3,0,21.8,8.6,21.8,22.5
		C1227.6,496.5,1217.9,505.2,1205.6,505.2z M1205.6,500.3c8.2,0,16.2-5.6,16.2-17.6c0-12-7.8-17.6-16.2-17.6s-16.1,5.6-16.1,17.6
		C1189.6,494.7,1197.3,500.3,1205.6,500.3z"/>
	<path class="st4" d="M1270.6,479.6c0-9.7-5.3-14.6-13.3-14.6c-8.2,0-13.8,5.1-13.8,15.8v23.8h-5.6v-43.7h5.6v7.4
		c2.8-5.4,8.4-8.2,14.9-8.2c9.9,0,17.8,6.1,17.8,18.9v25.6h-5.5V479.6z"/>
	<path class="st4" d="M1306.8,460.2c8.8,0,14.8,4.7,17.3,10.2v-9.6h5.6v43.7h-5.6v-9.7c-2.6,5.6-8.6,10.3-17.4,10.3
		c-11.9,0-20.8-8.9-20.8-22.6C1285.9,468.9,1294.8,460.2,1306.8,460.2z M1307.8,465.1c-9.2,0-16.2,6.4-16.2,17.5
		c0,11,7,17.7,16.2,17.7c9,0,16.2-6.7,16.2-17.6C1324.1,471.8,1316.8,465.1,1307.8,465.1z"/>
	<path class="st4" d="M1342.5,445.3h5.6v59.2h-5.6V445.3z"/>
</g>
</svg>
