<?xml version="1.0" encoding="utf-8"?>
<!-- Generator: Adobe Illustrator 27.1.1, SVG Export Plug-In . SVG Version: 6.00 Build 0)  -->
<svg version="1.1"
	 id="svg2" xmlns:dc="http://purl.org/dc/elements/1.1/" xmlns:rdf="http://www.w3.org/1999/02/22-rdf-syntax-ns#" xmlns:cc="http://creativecommons.org/ns#" xmlns:svg="http://www.w3.org/2000/svg"
	 xmlns="http://www.w3.org/2000/svg" xmlns:xlink="http://www.w3.org/1999/xlink" x="0px" y="0px" viewBox="0 0 1440 838.7"
	 style="enable-background:new 0 0 1440 838.7;" xml:space="preserve">
<style type="text/css">
	.st0{clip-path:url(#SVGID_00000041290228138835164640000000253935683532144057_);}
	.st1{fill:#F58614;}
	.st2{fill-rule:evenodd;clip-rule:evenodd;fill:#3872C1;}
	.st3{enable-background:new    ;}
	.st4{fill:#FFFFFF;}
</style>
<g id="g10" transform="matrix(1.3333333,0,0,-1.3333333,0,838.66667)">
	<g id="g16">
		<g>
			<g>
				<g>
					<g>
						<defs>
							<rect id="SVGID_1_" x="-1519.2" y="-679.5" width="3413.3" height="1988.1"/>
						</defs>
						<clipPath id="SVGID_00000178191107241305463490000007998959905544034440_">
							<use xlink:href="#SVGID_1_"  style="overflow:visible;"/>
						</clipPath>
						<g id="g18" style="clip-path:url(#SVGID_00000178191107241305463490000007998959905544034440_);">
							<g id="g24" transform="translate(553.4902,346.6395)">
								<path id="path26" class="st1" d="M-352.5,0c10.9,8.2,21.7,16.2,32.4,24.2c32.4,24.2,64.8,48.5,97.2,72.7
									c3.2,2.4,6.4,4.9,9.7,7.2c8.6,5.8,19.5,2,22.4-8c1.6-5.6,0.2-10.9-4.4-14.6c-6.2-5.1-12.7-9.7-19.1-14.5
									C-257.8,34.4-301.5,1.8-345-30.9c-7.3-5.5-16.1-4.6-21.9,2.4c-13.4,16.2-26.9,32.2-40.3,48.3c-2.6,3.1-5.2,6.2-7.7,9.3
									c-6.7,8.3-3.9,19.7,5.9,23.4c5.4,2,10.7,1.2,14.7-3c5-5.3,9.6-11.1,14.3-16.7c8.9-10.6,17.8-21.3,26.7-32
									C-353.1,0.5-352.9,0.3-352.5,0"/>
							</g>
							<g id="g28" transform="translate(502.4382,396.7353)">
								<path id="path30" class="st1" d="M-352.5,0c-1.6,0-3-0.4-4.3-0.8c-3.6-1.4-6.1-4-7-7.4c-1-3.6,0-7.5,2.6-10.7
									c1.7-2.1,3.5-4.2,5.2-6.2c0.9-1,1.7-2,2.5-3c3.8-4.6,7.7-9.2,11.5-13.8c9.4-11.3,19.2-22.9,28.7-34.5
									c4.6-5.6,11.4-6.3,17.3-1.9c31,23.3,62.6,46.9,93.1,69.7c12.6,9.4,25.2,18.8,37.8,28.2c1.5,1.1,3.1,2.3,4.6,3.4
									c4.8,3.5,9.7,7.2,14.3,11c4.3,3.5,4.1,8,3.2,11.1c-1,3.7-3.5,6.4-6.8,7.6c-3.4,1.2-7.2,0.7-10.4-1.5
									c-2.3-1.5-4.4-3.2-6.7-4.9c-1-0.7-1.9-1.5-2.9-2.2c-32.4-24.2-64.8-48.5-97.2-72.7l-34.7-25.9l-2.1,1.9
									c-0.1,0.1-0.2,0.2-0.3,0.3c-0.2,0.2-0.5,0.4-0.8,0.8c-3,3.6-5.9,7.1-8.9,10.7c-5.8,7-11.8,14.1-17.7,21.2
									c-1.1,1.4-2.3,2.7-3.4,4.1c-3.5,4.2-7,8.5-10.8,12.5C-347.9-0.8-350.3,0-352.5,0 M-303.9-87.9c-5.4,0-10.7,2.4-14.6,7.2
									c-9.5,11.5-19.3,23.2-28.7,34.4c-3.8,4.6-7.7,9.2-11.5,13.8c-0.8,1-1.7,2-2.5,3c-1.7,2.1-3.5,4.2-5.2,6.3
									c-4,4.9-5.4,11-3.8,16.7c1.5,5.5,5.6,9.9,11.2,12c6.7,2.6,13.4,1.1,18.2-3.9c3.9-4.1,7.6-8.5,11.1-12.8
									c1.1-1.4,2.2-2.7,3.4-4.1c5.9-7,11.8-14.1,17.8-21.2c2.5-3,5-6,7.5-9l30,22.4c32.4,24.2,64.8,48.5,97.2,72.7
									c0.9,0.7,1.9,1.4,2.8,2.1c2.3,1.7,4.6,3.5,7,5.1c5.1,3.4,11.1,4.2,16.5,2.2c5.3-2,9.4-6.4,11-12.1c2-7,0-13.6-5.5-18.1
									c-4.8-3.9-9.8-7.6-14.6-11.2c-1.5-1.1-3.1-2.3-4.6-3.4c-12.5-9.4-25.1-18.8-37.7-28.2C-229.4-36.8-261-60.4-292-83.7
									C-295.7-86.5-299.9-87.9-303.9-87.9"/>
							</g>
							<g id="g32" transform="translate(562.0818,475)">
								<path id="path34" class="st2" d="M-352.5,0l-3.7,5.2c-1.9,2.1-0.2,5.6,2.7,5.2c35.8-4.5,67.1-23.4,87.9-50.8
									c2-2.6,1.4-6.4-1.3-8.4l-17.4-12.8c-2.2-1.6-5.2-1.1-6.8,1C-306.6-40-330-25.6-356.8-22c-2.6,0.4-3.7,3.7-1.7,5.5l5,5.5
									C-350.5-8.2-349.8-3-352.5,0"/>
							</g>
							<g id="g36" transform="translate(675.6223,355.3786)">
								<path id="path38" class="st2" d="M-352.5,0c0-82-75.2-146.3-160.4-127.9c-44.3,9.6-89,54.3-98.6,98.6
									c-15.6,71.9,27.9,136.7,91.1,155.2l-1.4,23.5c-0.4,6.7,7.6,10.5,12.5,5.9l36.1-34.2c2.9-2.8,3.1-7.4,0.4-10.4l-31.9-34.8
									c-4.4-4.8-12.5-2-12.9,4.6l-0.7,12c-37.7-14.2-64.4-50.9-63.9-93.7c0.7-53.1,44.1-96.4,97.2-97.2
									c55.1-0.8,100,43.7,100,98.6c0,2.6-0.1,5.2-0.3,7.7c-0.2,2.6,0.9,5.2,3.1,6.7l19.4,14.2c2.9,2.2,7.2,0.5,7.9-3
									C-353.3,17.3-352.5,8.8-352.5,0"/>
							</g>
						</g>
					</g>
				</g>
			</g>
		</g>
	</g>
</g>
<g class="st3">
	<path class="st4" d="M559.1,231.3v210.3h-62.5V231.3H559.1z M679.1,231.3l-55.5,95.4l55.2,114.9h-70.2L561,325.4l53.9-94.1
		L679.1,231.3L679.1,231.3z"/>
	<path class="st4" d="M781,384v59.6c-4.7,0.8-9,1.2-12.9,1.2c-23.1,0-42.4-7.6-57.8-22.8c-15.4-15.2-23.1-34.3-23.1-57.2
		c0-22.3,7.8-41.2,23.3-56.7c15.6-15.5,34.5-23.3,56.8-23.3c24.9,0,44.4,7.3,58.8,21.8c14.3,14.5,21.5,34.4,21.5,59.5v75.3H790
		v-71.2c0-8.1-2-14.6-5.9-19.4c-4-4.8-9.3-7.2-15.9-7.2c-6.1,0-11.3,2.2-15.7,6.6s-6.6,9.7-6.6,15.7c0,6.4,2,11.6,6,15.7
		s9.1,6.2,15.3,6.2C772.1,388,776.7,386.7,781,384z"/>
	<path class="st4" d="M996.6,288l-71.8,159.6L853.9,288h55l16.3,41.4l17.9-41.4H996.6z"/>
	<path class="st4" d="M1088.1,384v59.6c-4.7,0.8-9,1.2-12.9,1.2c-23.1,0-42.4-7.6-57.8-22.8c-15.4-15.2-23.1-34.3-23.1-57.2
		c0-22.3,7.8-41.2,23.3-56.7c15.6-15.5,34.5-23.3,56.8-23.3c24.9,0,44.4,7.3,58.8,21.8c14.3,14.5,21.5,34.4,21.5,59.5v75.3H1097
		v-71.2c0-8.1-2-14.6-5.9-19.4c-4-4.8-9.3-7.2-15.9-7.2c-6.1,0-11.3,2.2-15.7,6.6c-4.4,4.4-6.6,9.7-6.6,15.7c0,6.4,2,11.6,6,15.7
		s9.1,6.2,15.3,6.2C1079.1,388,1083.8,386.7,1088.1,384z"/>
	<path class="st4" d="M1245.8,231.3v210.3h-57.6V231.3H1245.8z"/>
	<path class="st4" d="M1337.2,288v153.6h-57.6V288H1337.2z M1308.5,219.5c7.8,0,14.6,2.7,20.3,8.2c5.7,5.5,8.6,12,8.6,19.5
		c0,8-2.7,14.6-8.1,19.7s-12.3,7.7-20.7,7.7c-8.4,0-15.3-2.6-20.7-7.7c-5.4-5.1-8.1-11.7-8.1-19.7c0-7.5,2.8-14,8.5-19.5
		C1294,222.2,1300.7,219.5,1308.5,219.5z"/>
</g>
<text transform="matrix(1 0 0 1 543.8395 -160.8013)" class="st4" style="font-family:'Bauhaus93'; font-size:249.1235px;">Kavali</text>
<g class="st3">
	<path class="st4" d="M526.9,470.2c12.2,0,21.2,6.1,25.1,16.5h-6.4c-3-7.3-9.4-11.8-18.7-11.8c-11.9,0-21.1,8.8-21.1,23.1
		c0,14.2,9.1,23,21.1,23c9.3,0,15.7-4.5,18.7-11.6h6.4c-3.9,10.3-13,16.4-25.1,16.4c-15.1,0-26.7-11.4-26.7-27.8
		S511.8,470.2,526.9,470.2z"/>
	<path class="st4" d="M580.8,482.1c8.6,0,14.4,4.6,16.9,10v-9.4h5.5v42.6h-5.5v-9.4c-2.5,5.5-8.4,10.1-16.9,10.1
		c-11.6,0-20.3-8.7-20.3-22S569.1,482.1,580.8,482.1z M581.8,486.9c-9,0-15.8,6.2-15.8,17.1c0,10.8,6.9,17.2,15.8,17.2
		c8.7,0,15.8-6.6,15.8-17.2S590.5,486.9,581.8,486.9z"/>
	<path class="st4" d="M637.9,482.1c11.6,0,20.3,8.5,20.3,21.8c0,13.3-8.7,22-20.3,22c-8.5,0-14.4-4.7-16.9-10v29.5h-5.4v-62.7h5.4
		v9.4C623.4,486.7,629.4,482.1,637.9,482.1z M636.8,486.9c-8.7,0-15.8,6.6-15.8,17.2s7.2,17.2,15.8,17.2c9,0,15.8-6.5,15.8-17.2
		C652.6,493.1,645.8,486.9,636.8,486.9z"/>
	<path class="st4" d="M667,470.6c0-2.3,1.8-4,4-4s4,1.6,4,4c0,2.3-1.8,4.1-4,4.1S667,473,667,470.6z M668.2,482.7h5.5v42.6h-5.5
		V482.7z"/>
	<path class="st4" d="M687.6,487.3h-5.9v-4.6h5.9V472h5.5v10.7h11.7v4.6h-11.7v26.4c0,5.2,1.8,6.9,6.7,6.9h5v4.7H699
		c-7.4,0-11.4-3-11.4-11.5V487.3z"/>
	<path class="st4" d="M731.7,482.1c8.6,0,14.4,4.6,16.9,10v-9.4h5.5v42.6h-5.5v-9.4c-2.5,5.5-8.4,10.1-16.9,10.1
		c-11.6,0-20.3-8.7-20.3-22S720,482.1,731.7,482.1z M732.7,486.9c-9,0-15.8,6.2-15.8,17.1c0,10.8,6.9,17.2,15.8,17.2
		c8.7,0,15.8-6.6,15.8-17.2S741.5,486.9,732.7,486.9z"/>
	<path class="st4" d="M766.5,467.6h5.5v57.7h-5.5V467.6z"/>
	<path class="st4" d="M818,461.2V536h-15.4v-74.8H818z"/>
	<path class="st4" d="M848.8,470.8h5.5v54.5h-5.5V470.8z"/>
	<path class="st4" d="M898.5,501c0-9.4-5.1-14.3-13-14.3c-8,0-13.5,5-13.5,15.4v23.2h-5.5v-42.6h5.5v7.3c2.7-5.3,8.2-8,14.5-8
		c9.7,0,17.3,5.9,17.3,18.4v25h-5.4V501H898.5z"/>
	<path class="st4" d="M917.6,487.3h-5.9v-4.6h5.9V472h5.5v10.7h11.7v4.6h-11.7v26.4c0,5.2,1.8,6.9,6.7,6.9h5v4.7H929
		c-7.4,0-11.4-3-11.4-11.5V487.3z"/>
	<path class="st4" d="M962.2,526c-12.1,0-20.9-8.4-20.9-21.9c0-13.6,8.7-21.9,20.9-21.9c12.5,0,20.1,8.9,20.1,19.7
		c0,1.7,0,2.8-0.2,4.3h-35.3c0.5,10,7.4,15.2,15.4,15.2c7.3,0,12.2-3.8,13.7-9.5h5.8C979.7,519.9,972.9,526,962.2,526z M946.8,501.7
		h30c0.2-9.9-6.9-14.9-14.8-14.9C954.2,486.8,947.4,491.8,946.8,501.7z"/>
	<path class="st4" d="M997.8,525.3h-5.5v-42.6h5.5v7.6c2.3-5.2,7.3-8.3,14.6-8.3v5.7h-1.5c-7.1,0-13.1,3.2-13.1,13.9V525.3z"/>
	<path class="st4" d="M1052.5,501c0-9.4-5.1-14.3-13-14.3c-8,0-13.5,5-13.5,15.4v23.2h-5.5v-42.6h5.5v7.3c2.7-5.3,8.2-8,14.5-8
		c9.7,0,17.3,5.9,17.3,18.4v25h-5.4L1052.5,501L1052.5,501z"/>
	<path class="st4" d="M1087.8,482.1c8.6,0,14.4,4.6,16.9,10v-9.4h5.5v42.6h-5.5v-9.4c-2.5,5.5-8.4,10.1-16.9,10.1
		c-11.6,0-20.3-8.7-20.3-22S1076.1,482.1,1087.8,482.1z M1088.8,486.9c-9,0-15.8,6.2-15.8,17.1c0,10.8,6.9,17.2,15.8,17.2
		c8.7,0,15.8-6.6,15.8-17.2S1097.5,486.9,1088.8,486.9z"/>
	<path class="st4" d="M1124.2,487.3h-5.9v-4.6h5.9V472h5.5v10.7h11.7v4.6h-11.7v26.4c0,5.2,1.8,6.9,6.7,6.9h5v4.7h-5.9
		c-7.4,0-11.4-3-11.4-11.5v-26.5H1124.2z"/>
	<path class="st4" d="M1149.1,470.6c0-2.3,1.8-4,4-4s4,1.6,4,4c0,2.3-1.8,4.1-4,4.1S1149.1,473,1149.1,470.6z M1150.4,482.7h5.5
		v42.6h-5.5V482.7z"/>
	<path class="st4" d="M1186.9,526c-12,0-21.1-8.4-21.1-21.9c0-13.6,9.4-21.9,21.3-21.9c12,0,21.3,8.3,21.3,21.9
		C1208.3,517.5,1198.9,526,1186.9,526z M1186.9,521.2c8,0,15.8-5.5,15.8-17.2s-7.6-17.2-15.8-17.2s-15.7,5.5-15.7,17.2
		C1171.3,515.7,1178.8,521.2,1186.9,521.2z"/>
	<path class="st4" d="M1250.2,501c0-9.4-5.1-14.3-13-14.3c-8,0-13.5,5-13.5,15.4v23.2h-5.5v-42.6h5.5v7.3c2.7-5.3,8.2-8,14.5-8
		c9.7,0,17.3,5.9,17.3,18.4v25h-5.4L1250.2,501L1250.2,501z"/>
	<path class="st4" d="M1285.6,482.1c8.6,0,14.4,4.6,16.9,10v-9.4h5.5v42.6h-5.5v-9.4c-2.5,5.5-8.4,10.1-16.9,10.1
		c-11.6,0-20.3-8.7-20.3-22S1273.9,482.1,1285.6,482.1z M1286.6,486.9c-9,0-15.8,6.2-15.8,17.1c0,10.8,6.9,17.2,15.8,17.2
		c8.7,0,15.8-6.6,15.8-17.2S1295.3,486.9,1286.6,486.9z"/>
	<path class="st4" d="M1320.4,467.6h5.5v57.7h-5.5V467.6z"/>
</g>
</svg>
