<?xml version="1.0" encoding="UTF-8" standalone="no"?>
<svg
   xmlns:dc="http://purl.org/dc/elements/1.1/"
   xmlns:cc="http://creativecommons.org/ns#"
   xmlns:rdf="http://www.w3.org/1999/02/22-rdf-syntax-ns#"
   xmlns:svg="http://www.w3.org/2000/svg"
   xmlns="http://www.w3.org/2000/svg"
   viewBox="0 0 1440 838.66669"
   height="838.66669"
   width="1440"
   xml:space="preserve"
   id="svg2"
   version="1.1"><metadata
     id="metadata8"><rdf:RDF><cc:Work
         rdf:about=""><dc:format>image/svg+xml</dc:format><dc:type
           rdf:resource="http://purl.org/dc/dcmitype/StillImage" /></cc:Work></rdf:RDF></metadata><defs
     id="defs6"><clipPath
       id="clipPath22"
       clipPathUnits="userSpaceOnUse"><path
         id="path20"
         d="M 0,629 H 1080 V 0 H 0 Z" /></clipPath></defs><g
     transform="matrix(1.3333333,0,0,-1.3333333,0,838.66667)"
     id="g10"><text
       id="text14"
       style="font-variant:normal;font-weight:normal;font-stretch:normal;font-size:189.81069946px;font-family:'Bauhaus 93';-inkscape-font-specification:Bauhaus93;writing-mode:lr-tb;fill:#ffffff;fill-opacity:1;fill-rule:nonzero;stroke:none"
       transform="matrix(1,0,0,-1,273.5459,115.9243)"><tspan
         id="tspan12"
         y="0"
         x="0 122.4279 234.03659 307.11371 418.72241 473.76752">Kavali</tspan></text>
<g
       id="g16"><g
         clip-path="url(#clipPath22)"
         id="g18"><g
           transform="translate(553.4902,346.6395)"
           id="g24"><path
             id="path26"
             style="fill:#f58614;fill-opacity:1;fill-rule:nonzero;stroke:none"
             d="m 0,0 c 10.902,8.15 21.664,16.197 32.428,24.242 32.414,24.228 64.829,48.455 97.245,72.681 3.224,2.409 6.366,4.941 9.703,7.183 8.648,5.807 19.546,1.956 22.4,-8.01 1.617,-5.645 0.205,-10.868 -4.351,-14.605 -6.163,-5.056 -12.66,-9.708 -19.05,-14.484 C 94.736,34.383 51.049,1.824 7.481,-30.894 0.187,-36.372 -8.64,-35.488 -14.463,-28.446 -27.8,-12.319 -41.256,3.709 -54.664,19.776 c -2.581,3.092 -5.202,6.151 -7.739,9.278 -6.732,8.301 -3.913,19.679 5.901,23.366 5.434,2.041 10.714,1.161 14.71,-3.037 5.049,-5.303 9.61,-11.074 14.323,-16.692 C -18.549,22.057 -9.672,11.387 -0.773,0.736 -0.595,0.522 -0.369,0.348 0,0" /></g><g
           transform="translate(502.4382,396.7353)"
           id="g28"><path
             id="path30"
             style="fill:#f58614;fill-opacity:1;fill-rule:nonzero;stroke:none"
             d="m 0,0 c -1.556,0 -3.024,-0.365 -4.264,-0.831 -3.595,-1.35 -6.089,-3.986 -7.021,-7.421 -0.972,-3.581 -0.042,-7.469 2.552,-10.666 1.69,-2.084 3.456,-4.182 5.164,-6.211 0.85,-1.009 1.7,-2.018 2.545,-3.031 3.833,-4.594 7.67,-9.183 11.507,-13.774 9.427,-11.277 19.174,-22.937 28.703,-34.461 4.62,-5.585 11.419,-6.334 17.323,-1.9 30.996,23.277 62.571,46.861 93.106,69.668 12.599,9.41 25.198,18.821 37.794,28.237 1.528,1.143 3.064,2.279 4.599,3.415 4.771,3.529 9.704,7.18 14.331,10.976 4.297,3.525 4.139,7.966 3.25,11.071 -1.047,3.652 -3.54,6.439 -6.839,7.644 -3.377,1.234 -7.184,0.685 -10.443,-1.504 -2.261,-1.518 -4.407,-3.159 -6.68,-4.896 -0.959,-0.733 -1.918,-1.467 -2.885,-2.189 -32.415,-24.225 -64.83,-48.453 -97.244,-72.68 l -34.699,-25.94 -2.061,1.947 c -0.109,0.103 -0.204,0.188 -0.286,0.262 -0.23,0.207 -0.49,0.442 -0.757,0.761 -2.969,3.553 -5.933,7.106 -8.898,10.66 -5.926,7.103 -11.851,14.205 -17.796,21.292 -1.14,1.36 -2.272,2.728 -3.403,4.096 -3.455,4.178 -7.027,8.498 -10.779,12.439 C 4.644,-0.752 2.232,0 0,0 m 48.576,-87.889 c -5.406,-0.001 -10.651,2.443 -14.585,7.199 -9.517,11.509 -19.259,23.163 -28.68,34.433 -3.838,4.592 -7.676,9.183 -11.511,13.778 -0.839,1.005 -1.682,2.007 -2.525,3.009 -1.728,2.052 -3.515,4.175 -5.243,6.306 -3.975,4.9 -5.369,10.979 -3.822,16.677 1.493,5.503 5.559,9.864 11.155,11.966 6.859,2.577 13.543,1.168 18.336,-3.868 3.914,-4.111 7.563,-8.523 11.091,-12.79 1.122,-1.356 2.243,-2.712 3.373,-4.059 5.949,-7.092 11.878,-14.2 17.808,-21.307 2.506,-3.005 5.013,-6.009 7.521,-9.013 l 29.968,22.404 c 32.414,24.228 64.829,48.455 97.244,72.68 0.948,0.708 1.888,1.427 2.828,2.145 2.253,1.722 4.582,3.503 7.015,5.137 5.07,3.405 11.09,4.221 16.514,2.24 5.347,-1.954 9.359,-6.371 11.006,-12.12 2.013,-7.032 0.026,-13.644 -5.455,-18.139 -4.757,-3.903 -9.76,-7.604 -14.597,-11.183 -1.526,-1.129 -3.052,-2.259 -4.572,-3.395 -12.597,-9.416 -25.197,-18.828 -37.797,-28.239 -30.531,-22.805 -62.102,-46.385 -93.091,-69.657 -3.756,-2.821 -7.914,-4.204 -11.981,-4.204" /></g><g
           transform="translate(562.0818,475)"
           id="g32"><path
             id="path34"
             style="fill:#3872c1;fill-opacity:1;fill-rule:evenodd;stroke:none"
             d="m 0,0 -3.697,5.212 c -1.943,2.149 -0.176,5.581 2.698,5.219 35.813,-4.512 67.126,-23.471 87.929,-50.852 2,-2.64 1.4,-6.42 -1.27,-8.38 l -17.48,-12.77 c -2.17,-1.59 -5.19,-1.1 -6.81,1.05 -15.483,20.641 -38.875,35.007 -65.676,38.605 -2.632,0.353 -3.686,3.584 -1.744,5.395 L -1,-11 c 2.96,2.77 3.72,7.99 1,11" /></g><g
           transform="translate(675.6223,355.3786)"
           id="g36"><path
             id="path38"
             style="fill:#3872c1;fill-opacity:1;fill-rule:evenodd;stroke:none"
             d="m 0,0 c 0,-81.95 -75.21,-146.34 -160.38,-127.91 -44.32,9.59 -89.02,54.29 -98.61,98.62 -15.56,71.91 27.9,136.71 91.13,155.15 l -1.44,23.47 c -0.41,6.72 7.63,10.48 12.52,5.85 L -120.66,121 c 2.95,-2.79 3.11,-7.43 0.37,-10.42 l -31.9,-34.81 c -4.43,-4.84 -12.49,-1.98 -12.89,4.56 l -0.73,11.96 c -37.72,-14.2 -64.44,-50.86 -63.85,-93.69 0.74,-53.1 44.08,-96.44 97.17,-97.17 55.1,-0.77 99.99,43.66 99.99,98.57 0,2.6 -0.1,5.18 -0.3,7.73 -0.2,2.62 0.94,5.17 3.06,6.72 l 19.39,14.17 c 2.94,2.15 7.15,0.54 7.86,-3.03 C -0.85,17.31 0,8.75 0,0" /></g></g></g></g></svg>