<?xml version="1.0" encoding="utf-8"?>
<!-- Generator: Adobe Illustrator 27.1.1, SVG Export Plug-In . SVG Version: 6.00 Build 0)  -->
<svg version="1.1" id="Layer_1" xmlns="http://www.w3.org/2000/svg" xmlns:xlink="http://www.w3.org/1999/xlink" x="0px" y="0px"
	 viewBox="0 0 256 256" style="enable-background:new 0 0 256 256;" xml:space="preserve">
<style type="text/css">
	.st0{fill:#00F6FF;}
</style>
<g transform="translate(1.4065934065934016 1.4065934065934016) scale(2.81 2.81)">
	<path class="st0" d="M89.82,11.22c-0.34-0.76-1.12-1.22-1.95-1.17l-8.44,0.52l0.52-8.44c0.05-0.83-0.42-1.6-1.17-1.95
		C78.02-0.17,77.13,0,76.54,0.59l-6.16,6.16c-0.35,0.34-0.55,0.8-0.58,1.29l-0.61,9.95l-30.8,30.8c-0.78,0.78-0.78,2.05,0,2.83
		c0.39,0.39,0.9,0.59,1.41,0.59s1.02-0.19,1.41-0.59l30.8-30.8l9.95-0.61c0.49-0.03,0.95-0.24,1.29-0.58l6.16-6.16
		C90,12.87,90.17,11.98,89.82,11.22z M80.96,16.25l-7.69,0.47l0.47-7.69l1.89-1.89l-0.33,5.43c-0.04,0.57,0.18,1.13,0.58,1.54
		c0.4,0.41,0.97,0.62,1.54,0.58l5.43-0.33L80.96,16.25z"/>
	<path class="st0" d="M39.16,46.62c1.06-0.3,1.68-1.4,1.38-2.47c-0.3-1.06-1.4-1.68-2.47-1.38c-1.27,0.35-2.35,0.98-3.24,1.87
		c-1.4,1.41-2.18,3.28-2.18,5.26s0.77,3.86,2.18,5.26c1.41,1.41,3.28,2.18,5.26,2.18s3.86-0.77,5.26-2.18
		c0.88-0.89,1.51-1.98,1.87-3.24c0.3-1.06-0.32-2.17-1.38-2.47c-1.07-0.3-2.17,0.32-2.47,1.38c-0.17,0.6-0.45,1.1-0.85,1.49
		c-1.3,1.3-3.57,1.3-4.87,0c-0.65-0.65-1.01-1.51-1.01-2.44c0-0.92,0.36-1.78,1.01-2.44C38.06,47.07,38.56,46.79,39.16,46.62z"/>
	<path class="st0" d="M46.52,34.78c0.31-1.06-0.31-2.17-1.37-2.47c-6.41-1.84-13.31-0.07-18.01,4.63c-7.15,7.15-7.15,18.77,0,25.92
		c3.46,3.46,8.06,5.37,12.96,5.37s9.5-1.91,12.96-5.37c4.7-4.7,6.48-11.6,4.63-18.01c-0.3-1.06-1.41-1.67-2.47-1.37
		c-1.06,0.31-1.68,1.41-1.37,2.47c1.44,5.01,0.05,10.41-3.62,14.08c-2.71,2.71-6.31,4.2-10.13,4.2s-7.42-1.49-10.13-4.2
		c-2.71-2.71-4.2-6.31-4.2-10.13s1.49-7.42,4.2-10.13c3.67-3.67,9.07-5.06,14.08-3.62C45.11,36.46,46.22,35.84,46.52,34.78z"/>
	<path class="st0" d="M54.68,26.86c0.52-0.97,0.15-2.19-0.82-2.71c-11.43-6.11-25.26-4.07-34.41,5.09
		c-11.39,11.39-11.39,29.92,0,41.31c5.52,5.52,12.85,8.56,20.66,8.56s15.14-3.04,20.66-8.56c9.15-9.15,11.2-22.98,5.09-34.41
		c-0.52-0.97-1.73-1.34-2.71-0.82c-0.97,0.52-1.34,1.73-0.82,2.71c5.27,9.86,3.51,21.8-4.39,29.7c-4.76,4.76-11.1,7.39-17.83,7.39
		c-6.74,0-13.07-2.62-17.83-7.39c-9.83-9.83-9.83-25.83,0-35.66c7.9-7.9,19.84-9.67,29.7-4.39C52.94,28.2,54.15,27.83,54.68,26.86z"
		/>
	<path class="st0" d="M70.94,27.46c-0.93,0.6-1.19,1.84-0.58,2.77c9.25,14.2,7.26,33.21-4.74,45.2c-14.08,14.07-36.98,14.07-51.05,0
		C0.5,61.35,0.5,38.45,14.57,24.37c11.99-12,31-13.99,45.2-4.74c0.93,0.6,2.17,0.34,2.77-0.58c0.6-0.92,0.34-2.17-0.58-2.77
		C46.19,6.01,25.07,8.22,11.74,21.55c-15.64,15.64-15.64,41.07,0,56.71c7.82,7.82,18.09,11.73,28.35,11.73s20.54-3.91,28.35-11.73
		c13.32-13.32,15.54-34.44,5.26-50.21C73.11,27.12,71.87,26.86,70.94,27.46z"/>
</g>
</svg>
