<?xml version="1.0" encoding="utf-8"?>
<!-- Generator: Adobe Illustrator 27.1.1, SVG Export Plug-In . SVG Version: 6.00 Build 0)  -->
<svg version="1.1" id="Layer_1" xmlns="http://www.w3.org/2000/svg" xmlns:xlink="http://www.w3.org/1999/xlink" x="0px" y="0px"
	 viewBox="0 0 256 256" style="enable-background:new 0 0 256 256;" xml:space="preserve">
<style type="text/css">
	.st0{fill:#F58614;}
</style>
<g transform="translate(1.4065934065934016 1.4065934065934016) scale(2.81 2.81)">
	<path class="st0" d="M89.8,11.2c-0.3-0.8-1.1-1.2-1.9-1.2l-8.4,0.5l0.5-8.4c0.1-0.8-0.4-1.6-1.2-1.9C78-0.2,77.1,0,76.5,0.6
		l-6.2,6.2C70,7.1,69.8,7.6,69.8,8L69.2,18L38.4,48.8c-0.8,0.8-0.8,2,0,2.8c0.4,0.4,0.9,0.6,1.4,0.6s1-0.2,1.4-0.6L72,20.8l9.9-0.6
		c0.5,0,0.9-0.2,1.3-0.6l6.2-6.2C90,12.9,90.2,12,89.8,11.2z M81,16.2l-7.7,0.5L73.7,9l1.9-1.9l-0.3,5.4c0,0.6,0.2,1.1,0.6,1.5
		s1,0.6,1.5,0.6l5.4-0.3L81,16.2z"/>
	<path class="st0" d="M39.2,46.6c1.1-0.3,1.7-1.4,1.4-2.5c-0.3-1.1-1.4-1.7-2.5-1.4c-1.3,0.3-2.3,1-3.2,1.9
		c-1.4,1.4-2.2,3.3-2.2,5.3s0.8,3.9,2.2,5.3c1.4,1.4,3.3,2.2,5.3,2.2s3.9-0.8,5.3-2.2c0.9-0.9,1.5-2,1.9-3.2
		c0.3-1.1-0.3-2.2-1.4-2.5c-1.1-0.3-2.2,0.3-2.5,1.4c-0.2,0.6-0.5,1.1-0.8,1.5c-1.3,1.3-3.6,1.3-4.9,0c-0.7-0.7-1-1.5-1-2.4
		c0-0.9,0.4-1.8,1-2.4C38.1,47.1,38.6,46.8,39.2,46.6z"/>
	<path class="st0" d="M46.5,34.8c0.3-1.1-0.3-2.2-1.4-2.5c-6.4-1.8-13.3-0.1-18,4.6c-7.1,7.2-7.1,18.8,0,25.9
		c3.5,3.5,8.1,5.4,13,5.4s9.5-1.9,13-5.4c4.7-4.7,6.5-11.6,4.6-18c-0.3-1.1-1.4-1.7-2.5-1.4c-1.1,0.3-1.7,1.4-1.4,2.5
		c1.4,5,0,10.4-3.6,14.1c-2.7,2.7-6.3,4.2-10.1,4.2S32.7,62.7,30,60s-4.2-6.3-4.2-10.1s1.5-7.4,4.2-10.1c3.7-3.7,9.1-5.1,14.1-3.6
		C45.1,36.5,46.2,35.8,46.5,34.8z"/>
	<path class="st0" d="M54.7,26.9c0.5-1,0.2-2.2-0.8-2.7c-11.4-6.1-25.3-4.1-34.4,5.1c-11.4,11.4-11.4,29.9,0,41.3
		c5.5,5.5,12.9,8.6,20.7,8.6s15.1-3,20.7-8.6c9.1-9.2,11.2-23,5.1-34.4c-0.5-1-1.7-1.3-2.7-0.8c-1,0.5-1.3,1.7-0.8,2.7
		c5.3,9.9,3.5,21.8-4.4,29.7c-4.8,4.8-11.1,7.4-17.8,7.4c-6.7,0-13.1-2.6-17.8-7.4c-9.8-9.8-9.8-25.8,0-35.7
		c7.9-7.9,19.8-9.7,29.7-4.4C52.9,28.2,54.2,27.8,54.7,26.9z"/>
	<path class="st0" d="M70.9,27.5c-0.9,0.6-1.2,1.8-0.6,2.8c9.2,14.2,7.3,33.2-4.7,45.2c-14.1,14.1-37,14.1-51,0
		c-14.1-14.1-14.1-37,0-51.1c12-12,31-14,45.2-4.7c0.9,0.6,2.2,0.3,2.8-0.6s0.3-2.2-0.6-2.8C46.2,6,25.1,8.2,11.7,21.5
		c-15.6,15.6-15.6,41.1,0,56.7C19.6,86.1,29.8,90,40.1,90s20.5-3.9,28.4-11.7C81.8,64.9,84,43.8,73.7,28
		C73.1,27.1,71.9,26.9,70.9,27.5z"/>
</g>
</svg>
