<?xml version="1.0" encoding="utf-8"?>
<!-- Generator: Adobe Illustrator 28.4.1, SVG Export Plug-In . SVG Version: 6.00 Build 0)  -->
<svg version="1.1" id="Layer_1" xmlns="http://www.w3.org/2000/svg" xmlns:xlink="http://www.w3.org/1999/xlink" x="0px" y="0px"
	 viewBox="0 0 256 256" style="enable-background:new 0 0 256 256;" xml:space="preserve">
<style type="text/css">
	.st0{fill:none;stroke:#F58614;stroke-width:8;stroke-miterlimit:10;}
	.st1{fill:#F58614;}
</style>
<g>
	<g>
		<g>
			<g>
				<g>
					<path class="st0" d="M214.9,248.5H40c-4.4,0-8-3.6-8-8V17.9c0-4.4,3.6-8,8-8h139.2L223,49.6v190.9
						C222.9,245,219.3,248.5,214.9,248.5z"/>
					<polyline class="st0" points="179.1,9.9 179.1,49.6 222.9,49.6 					"/>
				</g>
			</g>
		</g>
	</g>
	<path class="st0" d="M122.2,37.6c0,0,6.5,0.4,6.9,11.6c0.2,6.2-1.1,14.6-13.1,41.4s-22.1,42.9-28.3,45.5c-6.1,2.6-8.5-2.8-8.5-2.8
		s-3.6-4.7,3.4-11.9c4.3-4.4,13.1-13.2,41.8-18.9s43.5-2,49.2,1.5s3.4,8.9,3.4,8.9s-2.1,5.9-11.1,3.5c-5.5-1.5-9.3-3.6-27.8-23.9
		c-21.3-23.3-23.3-33.8-23-45.6C115.5,37.6,122.2,37.6,122.2,37.6z"/>
	<g>
		<path class="st1" d="M88.3,200.3h-7.7v19.6H69.8v-50h18.5c2.6,0,4.9,0.3,7.1,0.8s4.1,1.4,5.7,2.6c1.6,1.2,2.9,2.8,3.8,4.7
			s1.4,4.3,1.4,7.1c0,4.9-1.6,8.7-4.8,11.3C98.5,199,94,200.3,88.3,200.3z M87.5,179h-6.9v12.1h6.9c1.1,0,2.1-0.1,3.1-0.2
			c1-0.2,1.8-0.4,2.6-0.9c0.7-0.4,1.3-1,1.8-1.8s0.7-1.8,0.7-3s-0.2-2.2-0.5-3s-0.8-1.4-1.4-1.8C92.5,179.5,90.4,179,87.5,179z"/>
		<path class="st1" d="M128.4,219.9h-16.6v-50h16.4c4,0,7.4,0.6,10.3,1.8c2.9,1.2,5.3,2.9,7.2,5.1c1.9,2.2,3.3,4.8,4.2,7.9
			c0.9,3.1,1.3,6.5,1.3,10.3c0,4-0.5,7.5-1.4,10.6s-2.4,5.7-4.4,7.8C141.6,217.7,135.9,219.9,128.4,219.9z M128.3,179h-5.7v31.7h5.6
			c2.5,0,4.5-0.4,6.1-1.3c1.6-0.8,2.9-2,3.8-3.5c0.9-1.5,1.6-3.2,1.9-5.1c0.4-1.9,0.5-4,0.5-6.1c0-2.7-0.3-5-0.8-7s-1.3-3.6-2.3-4.9
			C135.5,180.3,132.5,179,128.3,179z"/>
		<path class="st1" d="M167.7,189.2H184l0.1,9.1l-16.4,0.1v21.5h-10.8v-50h32.6v9.1h-21.8V189.2z"/>
	</g>
</g>
</svg>
