<?xml version="1.0" encoding="utf-8"?>
<!-- Generator: Adobe Illustrator 27.1.1, SVG Export Plug-In . SVG Version: 6.00 Build 0)  -->
<svg version="1.1" id="Layer_1" xmlns="http://www.w3.org/2000/svg" xmlns:xlink="http://www.w3.org/1999/xlink" x="0px" y="0px"
	 viewBox="0 0 256 256" style="enable-background:new 0 0 256 256;" xml:space="preserve">
<style type="text/css">
	.st0{fill:#00F6FF;}
</style>
<g transform="translate(1.4065934065934016 1.4065934065934016) scale(2.81 2.81)">
	<path class="st0" d="M89.38,16.52c-0.4-0.38-0.93-0.57-1.48-0.55c-6.4,0.32-13.33,1.38-21.82,3.34c-0.54,0.12-1.01,0.47-1.28,0.95
		c-0.28,0.48-0.34,1.06-0.18,1.59l0.21,0.69c-6.14-1.99-13.94-3.06-20.96-2.79c-2.94,0-6.21,1.37-9.18,3.42h-9.72l0.41-1.32
		c0.17-0.53,0.1-1.11-0.18-1.59c-0.28-0.48-0.74-0.83-1.28-0.95c-8.49-1.96-15.43-3.02-21.83-3.34c-0.56-0.02-1.08,0.17-1.48,0.55
		C0.23,16.9,0,17.43,0,17.97v33.56c0,1.1,0.9,2,2,2h12.1c0.79,0,1.47-0.47,1.79-1.17c9.74,11.25,19.6,21.26,27.62,21.26
		c1.44,0,2.83-0.33,4.15-1.03c1.11,0.94,2.46,1.44,3.84,1.44c1.51,0,3.03-0.57,4.19-1.71c0.59-0.58,1.03-1.26,1.33-1.99
		c0.76,0.35,1.59,0.54,2.46,0.55c0.01,0,0.03,0,0.04,0c1.58,0,3.06-0.61,4.18-1.71c0.98-0.97,1.53-2.21,1.69-3.48
		c0.11,0,0.22,0.02,0.33,0.02c1.52,0,3.01-0.53,4.09-1.6c2.31-2.28,2.36-6.01,0.13-8.35c-0.09-0.11-0.19-0.22-0.28-0.34l4.6-2.8
		c0.36,0.56,0.98,0.93,1.67,0.93H88c1.1,0,2-0.9,2-2V17.97C90,17.43,89.78,16.9,89.38,16.52z M4,49.54V20.1
		c5.04,0.38,10.51,1.23,16.92,2.64l-8.3,26.8H4z M66.98,61.25c-0.44,0.44-1.07,0.47-1.4,0.45c-0.61-0.03-1.21-0.29-1.6-0.69
		c-0.02-0.02-0.05-0.04-0.08-0.06c-0.06-0.07-0.1-0.14-0.17-0.21L53.03,49.9c-0.78-0.79-2.04-0.79-2.83-0.02
		c-0.79,0.78-0.79,2.04-0.02,2.83l10.7,10.83c0.76,0.77,0.75,2.01-0.02,2.77c-0.77,0.76-2.01,0.75-2.77-0.02l-2.37-2.4l-10.7-10.83
		c-0.78-0.79-2.04-0.79-2.83-0.02c-0.79,0.78-0.79,2.04-0.02,2.83l10.7,10.83c0.76,0.77,0.75,2.01-0.02,2.77
		c-0.77,0.76-2.01,0.75-2.77-0.02L37.02,56.21c-0.78-0.79-2.04-0.79-2.83-0.02c-0.79,0.78-0.79,2.04-0.02,2.83L44.5,69.47
		c-6.41,1.25-16.74-9.39-27.18-21.58l6.42-20.72h6.3c-1.94,2.06-3.5,4.29-4.36,6.39c-1.66,4.03-0.25,6.28,0.73,7.26
		c0.05,0.05,0.11,0.1,0.17,0.15c3.4,2.7,7.75,4.53,14.26-1.99c1.69,0.04,3.22-0.26,4.57-0.89c7.85,5.56,15.06,12.36,21.46,20.24
		c0.04,0.05,0.08,0.1,0.13,0.15c0.36,0.37,0.56,0.86,0.56,1.39S67.35,60.88,66.98,61.25z M46.66,34.09c-0.68-0.47-1.58-0.47-2.27,0
		c-1.1,0.76-2.42,1.03-4.15,0.86c-0.62-0.06-1.23,0.17-1.65,0.62c-5.2,5.53-7.36,3.99-9.41,2.37c-0.59-0.7-0.06-2.21,0.2-2.84
		c2.04-4.95,9.44-11.33,14.58-11.34c7.65-0.29,16.5,1.15,22.37,3.61l6.61,21.35l-5.92,3.6C60.85,45.29,54.02,39.17,46.66,34.09z
		 M86,49.54h-8.62l-8.3-26.8c6.41-1.41,11.88-2.26,16.92-2.64V49.54z"/>
</g>
</svg>
