<?xml version="1.0" encoding="utf-8"?>
<!-- Generator: Adobe Illustrator 27.1.1, SVG Export Plug-In . SVG Version: 6.00 Build 0)  -->
<svg version="1.1" id="Layer_1" xmlns="http://www.w3.org/2000/svg" xmlns:xlink="http://www.w3.org/1999/xlink" x="0px" y="0px"
	 viewBox="0 0 256 256" style="enable-background:new 0 0 256 256;" xml:space="preserve">
<style type="text/css">
	.st0{fill:#F58614;}
</style>
<g transform="translate(1.4065934065934016 1.4065934065934016) scale(2.81 2.81)">
	<path class="st0" d="M89.4,16.5C89,16.1,88.4,16,87.9,16c-6.4,0.3-13.3,1.4-21.8,3.3c-0.5,0.1-1,0.5-1.3,1
		c-0.3,0.5-0.3,1.1-0.2,1.6l0.2,0.7c-6.1-2-13.9-3.1-21-2.8c-2.9,0-6.2,1.4-9.2,3.4H25l0.4-1.3c0.2-0.5,0.1-1.1-0.2-1.6
		s-0.7-0.8-1.3-1c-8.5-2-15.4-3-21.8-3.3c-0.6,0-1.1,0.2-1.5,0.5C0.2,16.9,0,17.4,0,18v33.6c0,1.1,0.9,2,2,2h12.1
		c0.8,0,1.5-0.5,1.8-1.2c9.7,11.2,19.6,21.3,27.6,21.3c1.4,0,2.8-0.3,4.2-1c1.1,0.9,2.5,1.4,3.8,1.4c1.5,0,3-0.6,4.2-1.7
		c0.6-0.6,1-1.3,1.3-2c0.8,0.3,1.6,0.5,2.5,0.6c0,0,0,0,0,0c1.6,0,3.1-0.6,4.2-1.7c1-1,1.5-2.2,1.7-3.5c0.1,0,0.2,0,0.3,0
		c1.5,0,3-0.5,4.1-1.6c2.3-2.3,2.4-6,0.1-8.3c-0.1-0.1-0.2-0.2-0.3-0.3l4.6-2.8c0.4,0.6,1,0.9,1.7,0.9H88c1.1,0,2-0.9,2-2V18
		C90,17.4,89.8,16.9,89.4,16.5z M4,49.5V20.1c5,0.4,10.5,1.2,16.9,2.6l-8.3,26.8H4z M67,61.2c-0.4,0.4-1.1,0.5-1.4,0.5
		c-0.6,0-1.2-0.3-1.6-0.7c0,0,0,0-0.1-0.1c-0.1-0.1-0.1-0.1-0.2-0.2L53,49.9c-0.8-0.8-2-0.8-2.8,0c-0.8,0.8-0.8,2,0,2.8l10.7,10.8
		c0.8,0.8,0.8,2,0,2.8c-0.8,0.8-2,0.8-2.8,0l-2.4-2.4L45,53.1c-0.8-0.8-2-0.8-2.8,0c-0.8,0.8-0.8,2,0,2.8l10.7,10.8
		c0.8,0.8,0.8,2,0,2.8c-0.8,0.8-2,0.8-2.8,0L37,56.2c-0.8-0.8-2-0.8-2.8,0c-0.8,0.8-0.8,2,0,2.8l10.3,10.5
		c-6.4,1.2-16.7-9.4-27.2-21.6l6.4-20.7H30c-1.9,2.1-3.5,4.3-4.4,6.4c-1.7,4-0.2,6.3,0.7,7.3c0,0,0.1,0.1,0.2,0.2
		c3.4,2.7,7.8,4.5,14.3-2c1.7,0,3.2-0.3,4.6-0.9c7.8,5.6,15.1,12.4,21.5,20.2c0,0,0.1,0.1,0.1,0.2c0.4,0.4,0.6,0.9,0.6,1.4
		S67.3,60.9,67,61.2z M46.7,34.1c-0.7-0.5-1.6-0.5-2.3,0c-1.1,0.8-2.4,1-4.2,0.9c-0.6-0.1-1.2,0.2-1.7,0.6c-5.2,5.5-7.4,4-9.4,2.4
		c-0.6-0.7-0.1-2.2,0.2-2.8c2-5,9.4-11.3,14.6-11.3c7.7-0.3,16.5,1.1,22.4,3.6l6.6,21.4L67,52.3C60.8,45.3,54,39.2,46.7,34.1z
		 M86,49.5h-8.6l-8.3-26.8c6.4-1.4,11.9-2.3,16.9-2.6L86,49.5L86,49.5z"/>
</g>
</svg>
