<?xml version="1.0" encoding="utf-8"?>
<!-- Generator: Adobe Illustrator 27.1.1, SVG Export Plug-In . SVG Version: 6.00 Build 0)  -->
<svg version="1.1" id="Layer_1" xmlns="http://www.w3.org/2000/svg" xmlns:xlink="http://www.w3.org/1999/xlink" x="0px" y="0px"
	 viewBox="0 0 256 256" style="enable-background:new 0 0 256 256;" xml:space="preserve">
<style type="text/css">
	.st0{fill:#F58614;}
</style>
<g transform="translate(1.4065934065934016 1.4065934065934016) scale(2.81 2.81)">
	<path class="st0" d="M45,89.4L45,89.4c-2.3,0-4.5-1-6.1-2.8l-6-6.9c-0.5-0.5-1.2-0.8-1.8-0.7l-9,1.4c-2.3,0.4-4.6-0.3-6.4-1.8
		s-2.8-3.7-2.9-6l-0.2-9.1c0-0.7-0.4-1.3-1-1.7l-7.8-4.7c-2-1.2-3.4-3.2-3.8-5.5s0.2-4.6,1.7-6.4l5.7-7.1C8,37.7,8.1,37,7.9,36.3
		l-3-8.6c-0.8-2.2-0.5-4.6,0.6-6.6c1.2-2,3.1-3.4,5.4-3.9l8.9-1.7c0.7-0.1,1.3-0.6,1.5-1.3l3.3-8.5c0.8-2.2,2.6-3.9,4.8-4.7
		S34,0.4,36,1.5L44,6c0.6,0.3,1.4,0.3,2,0l8-4.4c2-1.1,4.5-1.3,6.6-0.5c2.2,0.8,3.9,2.5,4.7,4.7l3.3,8.5c0.3,0.7,0.8,1.1,1.5,1.3
		l8.9,1.7c2.3,0.4,4.3,1.9,5.4,3.9c1.2,2,1.4,4.4,0.6,6.6l-3,8.6c-0.2,0.7-0.1,1.4,0.3,1.9l5.7,7.1c1.5,1.8,2.1,4.2,1.7,6.4
		c-0.4,2.3-1.8,4.3-3.8,5.5L78.3,62c-0.6,0.4-1,1-1,1.7l-0.2,9.1c0,2.3-1.1,4.5-2.9,6s-4.1,2.1-6.4,1.8l-9-1.4
		c-0.7-0.1-1.4,0.1-1.8,0.7l-6,6.9C49.5,88.4,47.3,89.4,45,89.4z M31.5,73.1c2.3,0,4.5,1,6,2.8l6,6.9c0.5,0.6,1.2,0.7,1.5,0.7l0,0
		c0.3,0,1-0.1,1.5-0.7l6-6.9c1.8-2.1,4.6-3.1,7.3-2.7l9,1.4c0.8,0.1,1.4-0.2,1.6-0.4c0.3-0.2,0.7-0.7,0.7-1.5l0.2-9.1
		c0-2.8,1.5-5.3,3.9-6.7l7.8-4.7c0.7-0.4,0.9-1,1-1.4c0.1-0.3,0.1-1-0.4-1.6L77.8,42c-1.8-2.2-2.3-5-1.4-7.7l3-8.6
		c0.3-0.8,0-1.4-0.2-1.7c-0.2-0.3-0.6-0.8-1.4-1L69,21.4c-2.7-0.5-5-2.4-6-5l-3.3-8.5c-0.3-0.8-0.9-1.1-1.2-1.2s-1-0.3-1.7,0.1
		l-8,4.4c-2.4,1.4-5.3,1.4-7.8,0l-8-4.4c-0.7-0.4-1.4-0.2-1.7-0.1s-0.9,0.4-1.2,1.2L27,16.4c-1,2.6-3.2,4.5-6,5l-8.9,1.7
		c-0.8,0.2-1.2,0.7-1.4,1s-0.4,0.9-0.2,1.7l3,8.6c0.9,2.6,0.4,5.5-1.4,7.7l-5.7,7.1C5.9,49.7,6,50.4,6,50.7s0.3,1,1,1.4l7.8,4.7
		c2.4,1.4,3.8,4,3.9,6.7l0.2,9.1c0,0.8,0.5,1.3,0.7,1.5c0.3,0.2,0.8,0.6,1.6,0.4l9-1.4C30.6,73.1,31,73.1,31.5,73.1z"/>
	<path class="st0" d="M41.5,60c-0.9,0-1.7-0.4-2.2-1L27.5,45.9c-1.1-1.2-1-3.1,0.2-4.2c1.2-1.1,3.1-1,4.2,0.2l9.5,10.6l18.5-21.4
		c1.1-1.3,3-1.4,4.2-0.3c1.3,1.1,1.4,3,0.3,4.2L43.8,58.9C43.2,59.6,42.4,60,41.5,60L41.5,60z"/>
</g>
</svg>
