<?xml version="1.0" encoding="utf-8"?>
<!-- Generator: Adobe Illustrator 27.1.1, SVG Export Plug-In . SVG Version: 6.00 Build 0)  -->
<svg version="1.1" id="Layer_1" xmlns="http://www.w3.org/2000/svg" xmlns:xlink="http://www.w3.org/1999/xlink" x="0px" y="0px"
	 viewBox="0 0 256 256" style="enable-background:new 0 0 256 256;" xml:space="preserve">
<style type="text/css">
	.st0{fill:#F58614;stroke:#F58614;stroke-width:3;stroke-miterlimit:10;}
</style>
<g transform="translate(1.4065934065934016 1.4065934065934016) scale(2.81 2.81)">
	<path class="st0" d="M16.2,90c-1.7,0-3.5-0.3-5.2-0.8c-0.3-0.1-0.6-0.4-0.7-0.7c-0.1-0.3,0-0.7,0.3-0.9l7.2-7.2
		c1.1-1.1,1.7-2.6,1.7-4.1s-0.6-3-1.7-4.1c-2.3-2.3-5.9-2.3-8.2,0l-7.2,7.2c-0.2,0.2-0.6,0.3-0.9,0.3S1,79.2,0.8,78.9
		C-1.1,73,0.4,66.7,4.8,62.3c4.5-4.5,11.1-5.9,17-3.8l36.8-36.8c-2.1-5.9-0.7-12.5,3.8-17c4.4-4.4,10.7-5.8,16.6-3.9
		c0.3,0.1,0.6,0.4,0.7,0.7s0,0.7-0.3,0.9l-7.2,7.2c-2.3,2.3-2.3,5.9,0,8.2c1.1,1.1,2.6,1.7,4.1,1.7c1.6,0,3-0.6,4.1-1.7l7.2-7.2
		c0.2-0.2,0.6-0.3,0.9-0.3c0.3,0.1,0.6,0.3,0.7,0.7c1.9,5.9,0.4,12.2-3.9,16.6c-4.5,4.5-11.1,5.9-17,3.8L31.5,68.3
		c2.1,5.9,0.7,12.5-3.8,16.9C24.6,88.3,20.5,90,16.2,90z M13.3,87.7c4.7,1,9.5-0.4,12.9-3.9c4-4.1,5.3-10.1,3.1-15.4
		c-0.1-0.4-0.1-0.8,0.2-1.1l37.8-37.8c0.3-0.3,0.7-0.4,1.1-0.2c5.3,2.2,11.3,0.9,15.4-3.1c3.4-3.4,4.8-8.2,3.9-12.9l-6,6
		c-1.5,1.5-3.4,2.3-5.5,2.3s-4-0.8-5.5-2.3c-3-3-3-8,0-11l6-6c-4.7-1-9.5,0.4-12.9,3.9c-4,4.1-5.3,10.1-3.1,15.4
		c0.2,0.4,0.1,0.8-0.2,1.1L22.6,60.4c-0.3,0.3-0.7,0.4-1.1,0.2c-5.3-2.2-11.4-0.9-15.4,3.1C2.7,67.2,1.3,72,2.3,76.7l6-6
		c3-3,8-3,11,0c1.5,1.5,2.3,3.4,2.3,5.5c0,2.1-0.8,4-2.3,5.5L13.3,87.7z"/>
	<path class="st0" d="M29.6,61.4c-0.3,0-0.5-0.1-0.7-0.3c-0.4-0.4-0.4-1,0-1.4l30.8-30.8c0.4-0.4,1-0.4,1.4,0s0.4,1,0,1.4L30.3,61.1
		C30.1,61.3,29.9,61.4,29.6,61.4z"/>
	<path class="st0" d="M79.6,89.8c-2.7,0-5.3-1-7.3-3L57.4,71.9c-0.2-0.2-0.3-0.4-0.3-0.7c-0.2-3.5-1.9-7.1-4.7-9.9
		c-2.8-2.8-6.3-4.5-9.8-4.7c-0.5,0-1-0.5-0.9-1.1c0-0.5,0.5-1,1.1-0.9c3.9,0.2,7.9,2.2,11.1,5.3c3.1,3.1,5,7,5.3,10.8l14.6,14.6
		c3.3,3.3,8.6,3.3,11.8,0s3.3-8.6,0-11.8L70.9,58.9c-3.8-0.3-7.8-2.2-10.8-5.3c-3.1-3.1-5.1-7.2-5.3-11.1c0-0.5,0.4-1,0.9-1.1
		c0.5,0,1,0.4,1.1,0.9c0.2,3.4,1.9,7,4.7,9.8c2.8,2.8,6.5,4.6,9.9,4.7c0.2,0,0.5,0.1,0.7,0.3L87,72.1c4,4,4,10.6,0,14.7
		C84.9,88.8,82.3,89.8,79.6,89.8z"/>
	<path class="st0" d="M81,81.9c-0.3,0-0.5-0.1-0.7-0.3L52.4,53.7c-0.4-0.4-0.4-1,0-1.4s1-0.4,1.4,0l27.9,27.9c0.4,0.4,0.4,1,0,1.4
		C81.5,81.8,81.3,81.9,81,81.9z"/>
	<path class="st0" d="M39.1,43.5c-0.3,0-0.5-0.1-0.7-0.3L11.7,16.5l-5.8-1.9c-0.2-0.1-0.4-0.2-0.6-0.5L0.1,4.9C-0.1,4.5,0,4,0.3,3.7
		l3.2-3.2c0.3-0.3,0.8-0.4,1.2-0.2L14,5.5c0.2,0.1,0.4,0.3,0.5,0.6l1.9,5.8l26.7,26.7c0.4,0.4,0.4,1,0,1.4s-1,0.4-1.4,0L14.8,13.1
		c-0.1-0.1-0.2-0.2-0.2-0.4l-1.8-5.7L4.4,2.4L2.2,4.6l4.7,8.3l5.7,1.8c0.1,0.1,0.3,0.1,0.4,0.2l26.9,26.9c0.4,0.4,0.4,1,0,1.4
		C39.7,43.4,39.4,43.5,39.1,43.5z"/>
</g>
</svg>
