<?xml version="1.0" encoding="utf-8"?>
<!-- Generator: Adobe Illustrator 27.1.1, SVG Export Plug-In . SVG Version: 6.00 Build 0)  -->
<svg version="1.1" id="Layer_1" xmlns="http://www.w3.org/2000/svg" xmlns:xlink="http://www.w3.org/1999/xlink" x="0px" y="0px"
	 viewBox="0 0 256 256" style="enable-background:new 0 0 256 256;" xml:space="preserve">
<style type="text/css">
	.st0{fill:#00F6FF;}
</style>
<g transform="translate(1.4065934065934016 1.4065934065934016) scale(2.81 2.81)">
	<path class="st0" d="M16.25,90c-1.72,0-3.46-0.28-5.16-0.84c-0.33-0.11-0.58-0.38-0.66-0.72c-0.08-0.34,0.02-0.69,0.27-0.94
		l7.19-7.19c1.1-1.1,1.7-2.55,1.7-4.1s-0.6-3.01-1.7-4.1c-2.26-2.26-5.95-2.26-8.21,0L2.5,79.3c-0.24,0.24-0.6,0.35-0.94,0.27
		c-0.34-0.08-0.61-0.33-0.72-0.66c-1.94-5.87-0.45-12.22,3.91-16.57c4.46-4.46,11.05-5.92,16.95-3.79l36.85-36.85
		c-2.12-5.9-0.67-12.49,3.79-16.95c4.35-4.36,10.71-5.85,16.57-3.91c0.33,0.11,0.58,0.38,0.66,0.72c0.08,0.34-0.02,0.69-0.27,0.94
		l-7.19,7.19c-2.26,2.26-2.26,5.94,0,8.21c1.1,1.1,2.55,1.7,4.1,1.7c1.55,0,3.01-0.6,4.1-1.7l7.19-7.19
		c0.25-0.25,0.6-0.34,0.94-0.27c0.34,0.08,0.61,0.33,0.72,0.66c1.95,5.87,0.45,12.22-3.91,16.57c-4.46,4.46-11.05,5.92-16.95,3.79
		L31.46,68.31c2.12,5.9,0.67,12.49-3.79,16.95C24.57,88.35,20.47,90,16.25,90z M13.34,87.7c4.67,0.97,9.49-0.44,12.91-3.86
		c4.05-4.05,5.27-10.1,3.11-15.41c-0.15-0.37-0.07-0.8,0.22-1.08l37.77-37.77c0.29-0.28,0.71-0.37,1.08-0.22
		c5.31,2.16,11.35,0.94,15.41-3.11c3.42-3.42,4.83-8.25,3.86-12.91l-5.97,5.97c-1.47,1.47-3.43,2.29-5.52,2.29s-4.04-0.81-5.52-2.28
		c-3.04-3.04-3.04-7.99,0-11.03l5.97-5.97c-4.67-0.97-9.5,0.44-12.92,3.86c-4.05,4.05-5.27,10.1-3.11,15.41
		c0.15,0.37,0.06,0.8-0.22,1.08L22.65,60.42c-0.28,0.28-0.71,0.37-1.08,0.22c-5.31-2.16-11.35-0.94-15.41,3.11
		C2.74,67.17,1.33,72,2.3,76.66l5.97-5.97c3.04-3.04,7.99-3.04,11.03,0c1.47,1.47,2.29,3.43,2.28,5.52c0,2.08-0.81,4.04-2.29,5.52
		L13.34,87.7z"/>
	<path class="st0" d="M29.62,61.38c-0.26,0-0.51-0.1-0.71-0.29c-0.39-0.39-0.39-1.02,0-1.41l30.76-30.76c0.39-0.39,1.02-0.39,1.41,0
		c0.39,0.39,0.39,1.02,0,1.41L30.33,61.09C30.13,61.28,29.88,61.38,29.62,61.38z"/>
	<path class="st0" d="M79.62,89.83c-2.65,0-5.31-1.01-7.33-3.03L57.42,71.93c-0.18-0.18-0.28-0.41-0.29-0.66
		c-0.15-3.46-1.88-7.08-4.72-9.92c-2.79-2.79-6.35-4.51-9.76-4.71c-0.55-0.03-0.97-0.51-0.94-1.06c0.03-0.55,0.51-0.97,1.06-0.94
		c3.89,0.23,7.92,2.16,11.06,5.29c3.09,3.09,5,7.02,5.28,10.85l14.6,14.6c3.26,3.26,8.57,3.26,11.83,0c3.26-3.26,3.26-8.57,0-11.83
		l-14.6-14.6c-3.83-0.28-7.76-2.19-10.85-5.28c-3.13-3.14-5.06-7.17-5.29-11.06c-0.03-0.55,0.39-1.02,0.94-1.06
		c0.54-0.04,1.02,0.39,1.06,0.94c0.2,3.41,1.92,6.97,4.71,9.76c2.84,2.84,6.46,4.56,9.92,4.72c0.25,0.01,0.49,0.12,0.66,0.29
		l14.87,14.87c4.04,4.04,4.04,10.62,0,14.66C84.93,88.82,82.28,89.83,79.62,89.83z"/>
	<path class="st0" d="M81.01,81.86c-0.26,0-0.51-0.1-0.71-0.29L52.38,53.65c-0.39-0.39-0.39-1.02,0-1.41s1.02-0.39,1.41,0
		l27.92,27.92c0.39,0.39,0.39,1.02,0,1.41C81.52,81.76,81.26,81.86,81.01,81.86z"/>
	<path class="st0" d="M39.14,43.51c-0.26,0-0.51-0.1-0.71-0.29L11.74,16.53l-5.82-1.89c-0.24-0.08-0.44-0.24-0.56-0.46l-5.22-9.3
		C-0.08,4.48-0.01,4,0.3,3.68l3.22-3.22c0.32-0.32,0.81-0.38,1.2-0.16l9.3,5.22c0.22,0.12,0.38,0.32,0.46,0.56l1.89,5.82
		l26.69,26.69c0.39,0.39,0.39,1.02,0,1.41c-0.39,0.39-1.02,0.39-1.41,0L14.8,13.14c-0.11-0.11-0.19-0.25-0.24-0.4l-1.84-5.68
		L4.41,2.4L2.25,4.56l4.66,8.3l5.68,1.84c0.15,0.05,0.29,0.13,0.4,0.24l26.86,26.86c0.39,0.39,0.39,1.02,0,1.41
		C39.65,43.42,39.39,43.51,39.14,43.51z"/>
</g>
</svg>
