<?xml version="1.0" encoding="utf-8"?>
<!-- Generator: Adobe Illustrator 27.1.1, SVG Export Plug-In . SVG Version: 6.00 Build 0)  -->
<svg version="1.1" id="Layer_1" xmlns="http://www.w3.org/2000/svg" xmlns:xlink="http://www.w3.org/1999/xlink" x="0px" y="0px"
	 viewBox="0 0 256 256" style="enable-background:new 0 0 256 256;" xml:space="preserve">
<style type="text/css">
	.st0{fill:#00F6FF;}
</style>
<g transform="translate(1.4065934065934016 1.4065934065934016) scale(2.81 2.81)">
	<path class="st0" d="M65.75,63.95H40.27c-1.1,0-2-0.9-2-2s0.9-2,2-2h23.48V25.29c0-0.93-0.75-1.68-1.68-1.68H13.09
		c-1.1,0-2-0.9-2-2s0.9-2,2-2h48.97c3.13,0,5.68,2.55,5.68,5.68v36.65C67.75,63.05,66.85,63.95,65.75,63.95z"/>
	<path class="st0" d="M27.39,63.95h-14.3c-1.1,0-2-0.9-2-2s0.9-2,2-2h14.3c1.1,0,2,0.9,2,2S28.49,63.95,27.39,63.95z"/>
	<path class="st0" d="M83.9,63.95h-1.16c-1.1,0-2-0.9-2-2s0.9-2,2-2h1.16c1.16,0,2.1-0.94,2.1-2.1V39.5c0-2.15-0.97-4.16-2.65-5.5
		l-5.25-4.18c-1.24-0.99-2.79-1.53-4.38-1.53h-5.97v31.65h2.11c1.1,0,2,0.9,2,2s-0.9,2-2,2h-4.11c-1.1,0-2-0.9-2-2V26.3
		c0-1.1,0.9-2,2-2h7.97c2.48,0,4.92,0.85,6.86,2.4l5.25,4.18C88.48,32.98,90,36.12,90,39.5v18.34C90,61.21,87.26,63.95,83.9,63.95z"
		/>
	<path class="st0" d="M88,46.34H75.35c-2.41,0-4.38-1.96-4.38-4.38V26.3c0-1.1,0.9-2,2-2s2,0.9,2,2v15.67
		c0,0.21,0.17,0.38,0.38,0.38H88c1.1,0,2,0.9,2,2S89.1,46.34,88,46.34z"/>
	<path class="st0" d="M33.83,70.39c-4.65,0-8.44-3.79-8.44-8.44c0-4.65,3.79-8.44,8.44-8.44s8.44,3.79,8.44,8.44
		C42.27,66.6,38.48,70.39,33.83,70.39z M33.83,57.51c-2.45,0-4.44,1.99-4.44,4.44s1.99,4.44,4.44,4.44s4.44-1.99,4.44-4.44
		S36.28,57.51,33.83,57.51z"/>
	<path class="st0" d="M76.3,70.39c-4.65,0-8.44-3.79-8.44-8.44c0-4.65,3.79-8.44,8.44-8.44c4.65,0,8.44,3.79,8.44,8.44
		C84.74,66.6,80.95,70.39,76.3,70.39z M76.3,57.51c-2.45,0-4.44,1.99-4.44,4.44s1.99,4.44,4.44,4.44s4.44-1.99,4.44-4.44
		S78.75,57.51,76.3,57.51z"/>
	<path class="st0" d="M65.75,51.79H33.83c-1.1,0-2-0.9-2-2s0.9-2,2-2h31.92c1.1,0,2,0.9,2,2S66.85,51.79,65.75,51.79z"/>
	<path class="st0" d="M88,51.79h-8.64c-1.1,0-2-0.9-2-2s0.9-2,2-2H88c1.1,0,2,0.9,2,2S89.1,51.79,88,51.79z"/>
	<circle class="st0" cx="33.83" cy="61.94" r="1.63"/>
	<circle class="st0" cx="76.3" cy="61.94" r="1.63"/>
	<path class="st0" d="M83.9,63.95h-1.16c-1.1,0-2-0.9-2-2s0.9-2,2-2h1.16c1.16,0,2.1-0.94,2.1-2.1V39.5c0-2.15-0.97-4.16-2.65-5.5
		l-5.25-4.18c-1.24-0.99-2.79-1.53-4.38-1.53h-5.97v31.65h2.11c1.1,0,2,0.9,2,2s-0.9,2-2,2h-4.11c-1.1,0-2-0.9-2-2V26.3
		c0-1.1,0.9-2,2-2h7.97c2.48,0,4.92,0.85,6.86,2.4l5.25,4.18C88.48,32.98,90,36.12,90,39.5v18.34C90,61.21,87.26,63.95,83.9,63.95z"
		/>
	<path class="st0" d="M24.02,51.79H2.16c-1.1,0-2-0.9-2-2s0.9-2,2-2h21.86c1.1,0,2,0.9,2,2S25.12,51.79,24.02,51.79z"/>
	<path class="st0" d="M45.17,36.19H2c-1.1,0-2-0.9-2-2s0.9-2,2-2h43.17c1.1,0,2,0.9,2,2S46.27,36.19,45.17,36.19z"/>
	<path class="st0" d="M65.75,36.19H55.23c-1.1,0-2-0.9-2-2s0.9-2,2-2h10.52c1.1,0,2,0.9,2,2S66.85,36.19,65.75,36.19z"/>
</g>
</svg>
