<?xml version="1.0" encoding="utf-8"?>
<!-- Generator: Adobe Illustrator 27.1.1, SVG Export Plug-In . SVG Version: 6.00 Build 0)  -->
<svg version="1.1" id="Layer_1" xmlns="http://www.w3.org/2000/svg" xmlns:xlink="http://www.w3.org/1999/xlink" x="0px" y="0px"
	 viewBox="0 0 256 256" style="enable-background:new 0 0 256 256;" xml:space="preserve">
<style type="text/css">
	.st0{fill:#F58614;}
</style>
<g transform="translate(1.4065934065934016 1.4065934065934016) scale(2.81 2.81)">
	<path class="st0" d="M65.8,64H40.3c-1.1,0-2-0.9-2-2s0.9-2,2-2h23.5V25.3c0-0.9-0.8-1.7-1.7-1.7h-49c-1.1,0-2-0.9-2-2s0.9-2,2-2h49
		c3.1,0,5.7,2.5,5.7,5.7V62C67.8,63,66.8,64,65.8,64z"/>
	<path class="st0" d="M27.4,64H13.1c-1.1,0-2-0.9-2-2s0.9-2,2-2h14.3c1.1,0,2,0.9,2,2S28.5,64,27.4,64z"/>
	<path class="st0" d="M83.9,64h-1.2c-1.1,0-2-0.9-2-2s0.9-2,2-2h1.2c1.2,0,2.1-0.9,2.1-2.1V39.5c0-2.2-1-4.2-2.7-5.5l-5.2-4.2
		c-1.2-1-2.8-1.5-4.4-1.5h-6v31.6h2.1c1.1,0,2,0.9,2,2s-0.9,2-2,2h-4.1c-1.1,0-2-0.9-2-2V26.3c0-1.1,0.9-2,2-2h8
		c2.5,0,4.9,0.9,6.9,2.4l5.2,4.2c2.7,2.1,4.2,5.2,4.2,8.6v18.3C90,61.2,87.3,64,83.9,64z"/>
	<path class="st0" d="M88,46.3H75.3c-2.4,0-4.4-2-4.4-4.4V26.3c0-1.1,0.9-2,2-2s2,0.9,2,2V42c0,0.2,0.2,0.4,0.4,0.4H88
		c1.1,0,2,0.9,2,2S89.1,46.3,88,46.3z"/>
	<path class="st0" d="M33.8,70.4c-4.6,0-8.4-3.8-8.4-8.4s3.8-8.4,8.4-8.4s8.4,3.8,8.4,8.4S38.5,70.4,33.8,70.4z M33.8,57.5
		c-2.5,0-4.4,2-4.4,4.4s2,4.4,4.4,4.4s4.4-2,4.4-4.4S36.3,57.5,33.8,57.5z"/>
	<path class="st0" d="M76.3,70.4c-4.7,0-8.4-3.8-8.4-8.4s3.8-8.4,8.4-8.4s8.4,3.8,8.4,8.4C84.7,66.6,80.9,70.4,76.3,70.4z
		 M76.3,57.5c-2.4,0-4.4,2-4.4,4.4s2,4.4,4.4,4.4s4.4-2,4.4-4.4S78.8,57.5,76.3,57.5z"/>
	<path class="st0" d="M65.8,51.8h-32c-1.1,0-2-0.9-2-2s0.9-2,2-2h31.9c1.1,0,2,0.9,2,2S66.8,51.8,65.8,51.8z"/>
	<path class="st0" d="M88,51.8h-8.6c-1.1,0-2-0.9-2-2s0.9-2,2-2H88c1.1,0,2,0.9,2,2S89.1,51.8,88,51.8z"/>
	<circle class="st0" cx="33.8" cy="61.9" r="1.6"/>
	<circle class="st0" cx="76.3" cy="61.9" r="1.6"/>
	<path class="st0" d="M83.9,64h-1.2c-1.1,0-2-0.9-2-2s0.9-2,2-2h1.2c1.2,0,2.1-0.9,2.1-2.1V39.5c0-2.2-1-4.2-2.7-5.5l-5.2-4.2
		c-1.2-1-2.8-1.5-4.4-1.5h-6v31.6h2.1c1.1,0,2,0.9,2,2s-0.9,2-2,2h-4.1c-1.1,0-2-0.9-2-2V26.3c0-1.1,0.9-2,2-2h8
		c2.5,0,4.9,0.9,6.9,2.4l5.2,4.2c2.7,2.1,4.2,5.2,4.2,8.6v18.3C90,61.2,87.3,64,83.9,64z"/>
	<path class="st0" d="M24,51.8H2.2c-1.1,0-2-0.9-2-2s0.9-2,2-2H24c1.1,0,2,0.9,2,2S25.1,51.8,24,51.8z"/>
	<path class="st0" d="M45.2,36.2H2c-1.1,0-2-0.9-2-2s0.9-2,2-2h43.2c1.1,0,2,0.9,2,2S46.3,36.2,45.2,36.2z"/>
	<path class="st0" d="M65.8,36.2H55.2c-1.1,0-2-0.9-2-2s0.9-2,2-2h10.5c1.1,0,2,0.9,2,2S66.8,36.2,65.8,36.2z"/>
</g>
</svg>
