<?xml version="1.0" encoding="utf-8"?>
<!-- Generator: Adobe Illustrator 27.1.1, SVG Export Plug-In . SVG Version: 6.00 Build 0)  -->
<svg version="1.1" id="Layer_1" xmlns="http://www.w3.org/2000/svg" xmlns:xlink="http://www.w3.org/1999/xlink" x="0px" y="0px"
	 viewBox="0 0 256 256" style="enable-background:new 0 0 256 256;" xml:space="preserve">
<style type="text/css">
	.st0{fill:#00F6FF;}
</style>
<g transform="translate(1.4065934065934016 1.4065934065934016) scale(2.81 2.81)">
	<path class="st0" d="M43.7,89.7c-7,0-15.9-9.7-24.5-19.8c-0.4-0.4-0.3-1.1,0.1-1.4c0.4-0.4,1.1-0.3,1.4,0.1
		c9.5,11.2,20.2,22.7,26.1,18c0.4-0.3,1.1-0.3,1.4,0.2c0.3,0.4,0.3,1.1-0.2,1.4C46.7,89.2,45.3,89.7,43.7,89.7z"/>
	<path class="st0" d="M50.4,90c-1.1,0-2.2-0.4-3.1-1.3l-11-11.1c-0.4-0.4-0.4-1,0-1.4c0.4-0.4,1-0.4,1.4,0l11,11.1
		c0.9,0.9,2.4,0.9,3.3,0c0.9-0.9,0.9-2.4,0-3.3l-9-9.1c-0.4-0.4-0.4-1,0-1.4c0.4-0.4,1-0.4,1.4,0l9,9.1c1.7,1.7,1.7,4.4,0,6.1
		C52.6,89.6,51.5,90,50.4,90z"/>
	<path class="st0" d="M57.1,87.4c-1.1,0-2.2-0.4-3.1-1.3l-2-2c-0.4-0.4-0.4-1,0-1.4c0.4-0.4,1-0.4,1.4,0l2,2c0.4,0.4,1,0.7,1.6,0.7
		c0.6,0,1.2-0.2,1.6-0.7c0.9-0.9,0.9-2.4,0-3.3l-9-9.1c-0.4-0.4-0.4-1,0-1.4c0.4-0.4,1-0.4,1.4,0l9,9.1c1.7,1.7,1.7,4.4,0,6.1
		C59.3,86.9,58.2,87.4,57.1,87.4z"/>
	<path class="st0" d="M62.3,83c-0.1,0-0.2,0-0.3,0c-1.2-0.1-2.3-0.6-3.1-1.4c-0.4-0.4-0.4-1,0-1.4c0.4-0.4,1-0.4,1.4,0
		c0.4,0.5,1.1,0.7,1.8,0.8c0.7,0,1.3-0.2,1.7-0.6c0.9-0.9,0.9-2.4,0-3.3c-5.5-6.8-11.8-12.6-18.5-17.4c-1.2,0.7-2.6,0.9-4.2,0.8
		c-5.2,5.3-8.5,4-11.3,1.8c0,0-0.1,0-0.1-0.1c-1.2-1.2-1.4-3.1-0.5-5.3c2.1-5,9.2-11.1,14.6-11.1c7.1-0.3,15.3,1.2,20.6,3.6
		c0.5,0.2,0.7,0.8,0.5,1.3c-0.2,0.5-0.8,0.7-1.3,0.5c-5-2.3-12.9-3.6-19.7-3.4c-4.5,0-11,5.6-12.8,9.9c-0.4,1-0.7,2.3,0,3.1
		c1.8,1.4,4,3.1,8.8-2c0.2-0.2,0.5-0.3,0.8-0.3c1.6,0.2,2.9-0.1,3.9-0.8c0.3-0.2,0.8-0.2,1.1,0c7.1,4.9,13.6,11,19.4,18.1
		c1.6,1.6,1.6,4.4-0.1,6C64.5,82.6,63.5,83,62.3,83z"/>
	<path class="st0" d="M36.9,50.8H26c-0.6,0-1-0.4-1-1s0.4-1,1-1h11c0.6,0,1,0.4,1,1S37.5,50.8,36.9,50.8z"/>
	<path class="st0" d="M63.1,75.7c-0.3,0-0.7-0.2-0.9-0.5c-0.3-0.5-0.1-1.1,0.3-1.4l7.3-4.4c0.5-0.3,1.1-0.1,1.4,0.3
		c0.3,0.5,0.1,1.1-0.3,1.4l-7.3,4.4C63.5,75.6,63.3,75.7,63.1,75.7z"/>
	<path class="st0" d="M19.1,72.8H9c-0.6,0-1-0.4-1-1V43.7c0-0.3,0.1-0.5,0.3-0.7c0.2-0.2,0.5-0.3,0.7-0.3c5.3,0.3,11.1,1.1,18.2,2.8
		c0.3,0.1,0.5,0.2,0.6,0.5s0.2,0.5,0.1,0.8l-7.9,25.3C19.9,72.6,19.6,72.8,19.1,72.8z M10,70.8h8.4l7.3-23.6
		c-6-1.3-11.1-2.1-15.7-2.4V70.8z"/>
	<path class="st0" d="M81,72.8H70.9c-0.4,0-0.8-0.3-1-0.7l-7.9-25.3C62,46.5,62,46.2,62.2,46c0.1-0.2,0.4-0.4,0.6-0.5
		c7.1-1.6,12.8-2.5,18.2-2.8c0.3,0,0.5,0.1,0.7,0.3s0.3,0.5,0.3,0.7v28.1C82,72.4,81.6,72.8,81,72.8z M71.6,70.8H80v-26
		c-4.6,0.3-9.7,1.1-15.7,2.4L71.6,70.8z"/>
	<path class="st0" d="M45.8,42.8c-6.7,0-12.1-5.4-12.1-12.1c0-6.7,5.4-12.1,12.1-12.1c6.7,0,12.1,5.4,12.1,12.1S52.5,42.8,45.8,42.8
		z M45.8,20.5c-5.6,0-10.1,4.5-10.1,10.1s4.5,10.1,10.1,10.1s10.1-4.5,10.1-10.1S51.4,20.5,45.8,20.5z M16.5,40.1
		c-0.4,0-0.8-0.2-0.9-0.6c-1.1-2.6,0.2-5.5,2.7-6.6c1.4-0.6,1.5-1.8,1.5-2.3c0-0.5-0.1-1.7-1.5-2.3c-1.2-0.5-2.2-1.5-2.7-2.7
		c-0.5-1.2-0.5-2.6,0-3.9l2.6-6.3c1.1-2.6,4-3.8,6.6-2.7c1.4,0.6,2.3-0.2,2.7-0.5c0.4-0.4,1.1-1.3,0.5-2.7c-0.5-1.2-0.5-2.6,0-3.8
		c0.5-1.2,1.5-2.2,2.7-2.7L37,0.4c2.6-1.1,5.5,0.2,6.6,2.7c0.6,1.4,1.8,1.5,2.3,1.5c0.5,0,1.7-0.1,2.3-1.5c0.5-1.2,1.5-2.2,2.7-2.7
		c1.2-0.5,2.6-0.5,3.9,0L61,3c1.2,0.5,2.2,1.5,2.7,2.7s0.5,2.6,0,3.9c-0.6,1.4,0.2,2.3,0.5,2.7c0.3,0.3,1.3,1.1,2.7,0.5
		c1.2-0.5,2.6-0.5,3.9,0c1.2,0.5,2.2,1.5,2.7,2.7l2.6,6.3c0.5,1.2,0.5,2.6,0,3.9c-0.5,1.2-1.5,2.2-2.7,2.7c-1.4,0.6-1.5,1.8-1.5,2.3
		s0.1,1.7,1.5,2.3c2.6,1.1,3.8,4,2.7,6.6c-0.2,0.5-0.8,0.8-1.3,0.5c-0.5-0.2-0.8-0.8-0.5-1.3c0.6-1.5-0.1-3.3-1.6-4
		c-2.5-1.1-2.7-3.4-2.7-4.1c0-1.4,0.7-3.3,2.7-4.1c0.7-0.3,1.3-0.9,1.6-1.6c0.3-0.7,0.3-1.6,0-2.3l-2.6-6.3
		c-0.3-0.7-0.9-1.3-1.6-1.6c-0.7-0.3-1.6-0.3-2.3,0c-2.5,1.1-4.4-0.5-4.8-1c-1-1-1.8-2.8-1-4.8c0.3-0.7,0.3-1.6,0-2.3
		c-0.3-0.7-0.9-1.3-1.6-1.6l-6.3-2.6c-0.7-0.3-1.6-0.3-2.3,0c-0.7,0.3-1.3,0.9-1.6,1.6c-1.1,2.5-3.4,2.7-4.1,2.7
		c-1.4,0-3.3-0.7-4.1-2.7c-0.6-1.5-2.4-2.3-4-1.6l-6.3,2.6c-0.7,0.3-1.3,0.9-1.6,1.6c-0.3,0.7-0.3,1.6,0,2.3c0.8,2,0.1,3.8-1,4.8
		c-1,1-2.8,1.8-4.8,1c-1.5-0.6-3.3,0.1-4,1.6l-2.6,6.3c-0.3,0.7-0.3,1.6,0,2.3c0.3,0.7,0.9,1.3,1.6,1.6c2,0.8,2.7,2.7,2.7,4.1
		c0,0.7-0.2,3-2.7,4.1c-1.5,0.6-2.3,2.4-1.6,4c0.2,0.5,0,1.1-0.5,1.3C16.7,40.1,16.6,40.1,16.5,40.1z"/>
</g>
</svg>
