<?xml version="1.0" encoding="utf-8"?>
<!-- Generator: Adobe Illustrator 27.1.1, SVG Export Plug-In . SVG Version: 6.00 Build 0)  -->
<svg version="1.1" id="Layer_1" xmlns="http://www.w3.org/2000/svg" xmlns:xlink="http://www.w3.org/1999/xlink" x="0px" y="0px"
	 viewBox="0 0 263 264.2" style="enable-background:new 0 0 263 264.2;" xml:space="preserve">
<style type="text/css">
	.st0{fill:#F58614;stroke:#F58614;stroke-width:4;stroke-miterlimit:10;}
</style>
<g transform="translate(1.4065934065934016 1.4065934065934016) scale(2.81 2.81)">
	<path class="st0" d="M43.7,91c-7,0-15.9-9.7-24.5-19.8c-0.4-0.4-0.3-1.1,0.1-1.4c0.4-0.4,1.1-0.3,1.4,0.1
		c9.5,11.2,20.2,22.7,26.1,18c0.4-0.3,1.1-0.3,1.4,0.2c0.3,0.4,0.3,1.1-0.2,1.4C46.7,90.5,45.3,91,43.7,91z"/>
	<path class="st0" d="M50.4,91.3c-1.1,0-2.2-0.4-3.1-1.3l-11-11.1c-0.4-0.4-0.4-1,0-1.4s1-0.4,1.4,0l11,11.1c0.9,0.9,2.4,0.9,3.3,0
		c0.9-0.9,0.9-2.4,0-3.3l-9-9.1c-0.4-0.4-0.4-1,0-1.4s1-0.4,1.4,0l9,9.1c1.7,1.7,1.7,4.4,0,6.1C52.6,90.9,51.5,91.3,50.4,91.3z"/>
	<path class="st0" d="M57.1,88.7c-1.1,0-2.2-0.4-3.1-1.3l-2-2c-0.4-0.4-0.4-1,0-1.4s1-0.4,1.4,0l2,2c0.4,0.4,1,0.7,1.6,0.7
		s1.2-0.2,1.6-0.7c0.9-0.9,0.9-2.4,0-3.3l-9-9.1c-0.4-0.4-0.4-1,0-1.4c0.4-0.4,1-0.4,1.4,0l9,9.1c1.7,1.7,1.7,4.4,0,6.1
		C59.3,88.2,58.2,88.7,57.1,88.7z"/>
	<path class="st0" d="M62.3,84.3c-0.1,0-0.2,0-0.3,0c-1.2-0.1-2.3-0.6-3.1-1.4c-0.4-0.4-0.4-1,0-1.4s1-0.4,1.4,0
		c0.4,0.5,1.1,0.7,1.8,0.8c0.7,0,1.3-0.2,1.7-0.6c0.9-0.9,0.9-2.4,0-3.3C58.3,71.6,52,65.8,45.3,61c-1.2,0.7-2.6,0.9-4.2,0.8
		c-5.2,5.3-8.5,4-11.3,1.8c0,0-0.1,0-0.1-0.1c-1.2-1.2-1.4-3.1-0.5-5.3c2.1-5,9.2-11.1,14.6-11.1c7.1-0.3,15.3,1.2,20.6,3.6
		c0.5,0.2,0.7,0.8,0.5,1.3s-0.8,0.7-1.3,0.5c-5-2.3-12.9-3.6-19.7-3.4c-4.5,0-11,5.6-12.8,9.9c-0.4,1-0.7,2.3,0,3.1
		c1.8,1.4,4,3.1,8.8-2c0.2-0.2,0.5-0.3,0.8-0.3c1.6,0.2,2.9-0.1,3.9-0.8c0.3-0.2,0.8-0.2,1.1,0c7.1,4.9,13.6,11,19.4,18.1
		c1.6,1.6,1.6,4.4-0.1,6C64.5,83.9,63.5,84.3,62.3,84.3z"/>
	<path class="st0" d="M36.9,52.1H26c-0.6,0-1-0.4-1-1s0.4-1,1-1h11c0.6,0,1,0.4,1,1S37.5,52.1,36.9,52.1z"/>
	<path class="st0" d="M63.1,77c-0.3,0-0.7-0.2-0.9-0.5c-0.3-0.5-0.1-1.1,0.3-1.4l7.3-4.4c0.5-0.3,1.1-0.1,1.4,0.3
		c0.3,0.5,0.1,1.1-0.3,1.4l-7.3,4.4C63.5,76.9,63.3,77,63.1,77z"/>
	<path class="st0" d="M19.1,74.1H9c-0.6,0-1-0.4-1-1V45c0-0.3,0.1-0.5,0.3-0.7S8.8,44,9,44c5.3,0.3,11.1,1.1,18.2,2.8
		c0.3,0.1,0.5,0.2,0.6,0.5s0.2,0.5,0.1,0.8L20,73.4C19.9,73.9,19.6,74.1,19.1,74.1z M10,72.1h8.4l7.3-23.6c-6-1.3-11.1-2.1-15.7-2.4
		C10,46.1,10,72.1,10,72.1z"/>
	<path class="st0" d="M81,74.1H70.9c-0.4,0-0.8-0.3-1-0.7L62,48.1c0-0.3,0-0.6,0.2-0.8c0.1-0.2,0.4-0.4,0.6-0.5
		c7.1-1.6,12.8-2.5,18.2-2.8c0.3,0,0.5,0.1,0.7,0.3S82,44.8,82,45v28.1C82,73.7,81.6,74.1,81,74.1z M71.6,72.1H80v-26
		c-4.6,0.3-9.7,1.1-15.7,2.4L71.6,72.1z"/>
	<path class="st0" d="M45.8,44.1c-6.7,0-12.1-5.4-12.1-12.1s5.4-12.1,12.1-12.1S57.9,25.3,57.9,32S52.5,44.1,45.8,44.1z M45.8,21.8
		c-5.6,0-10.1,4.5-10.1,10.1S40.2,42,45.8,42s10.1-4.5,10.1-10.1S51.4,21.8,45.8,21.8z M16.5,41.4c-0.4,0-0.8-0.2-0.9-0.6
		c-1.1-2.6,0.2-5.5,2.7-6.6c1.4-0.6,1.5-1.8,1.5-2.3s-0.1-1.7-1.5-2.3c-1.2-0.5-2.2-1.5-2.7-2.7c-0.5-1.2-0.5-2.6,0-3.9l2.6-6.3
		c1.1-2.6,4-3.8,6.6-2.7c1.4,0.6,2.3-0.2,2.7-0.5c0.4-0.4,1.1-1.3,0.5-2.7c-0.5-1.2-0.5-2.6,0-3.8s1.5-2.2,2.7-2.7L37,1.7
		c2.6-1.1,5.5,0.2,6.6,2.7c0.6,1.4,1.8,1.5,2.3,1.5s1.7-0.1,2.3-1.5c0.5-1.2,1.5-2.2,2.7-2.7s2.6-0.5,3.9,0L61,4.3
		c1.2,0.5,2.2,1.5,2.7,2.7c0.5,1.2,0.5,2.6,0,3.9c-0.6,1.4,0.2,2.3,0.5,2.7c0.3,0.3,1.3,1.1,2.7,0.5c1.2-0.5,2.6-0.5,3.9,0
		c1.2,0.5,2.2,1.5,2.7,2.7l2.6,6.3c0.5,1.2,0.5,2.6,0,3.9c-0.5,1.2-1.5,2.2-2.7,2.7c-1.4,0.6-1.5,1.8-1.5,2.3c0,0.5,0.1,1.7,1.5,2.3
		c2.6,1.1,3.8,4,2.7,6.6c-0.2,0.5-0.8,0.8-1.3,0.5c-0.5-0.2-0.8-0.8-0.5-1.3c0.6-1.5-0.1-3.3-1.6-4C70.2,35,70,32.7,70,32
		c0-1.4,0.7-3.3,2.7-4.1c0.7-0.3,1.3-0.9,1.6-1.6c0.3-0.7,0.3-1.6,0-2.3l-2.6-6.3c-0.3-0.7-0.9-1.3-1.6-1.6c-0.7-0.3-1.6-0.3-2.3,0
		c-2.5,1.1-4.4-0.5-4.8-1c-1-1-1.8-2.8-1-4.8c0.3-0.7,0.3-1.6,0-2.3c-0.3-0.7-0.9-1.3-1.6-1.6l-6.3-2.6c-0.7-0.3-1.6-0.3-2.3,0
		s-1.3,0.9-1.6,1.6c-1.1,2.5-3.4,2.7-4.1,2.7c-1.4,0-3.3-0.7-4.1-2.7c-0.6-1.5-2.4-2.3-4-1.6l-6.3,2.6C31,6.7,30.4,7.3,30.1,8
		s-0.3,1.6,0,2.3c0.8,2,0.1,3.8-1,4.8c-1,1-2.8,1.8-4.8,1c-1.5-0.6-3.3,0.1-4,1.6L17.7,24c-0.3,0.7-0.3,1.6,0,2.3
		c0.3,0.7,0.9,1.3,1.6,1.6c2,0.8,2.7,2.7,2.7,4.1c0,0.7-0.2,3-2.7,4.1c-1.5,0.6-2.3,2.4-1.6,4c0.2,0.5,0,1.1-0.5,1.3
		C16.7,41.4,16.6,41.4,16.5,41.4z"/>
</g>
</svg>
