<?xml version="1.0" encoding="utf-8"?>
<!-- Generator: Adobe Illustrator 27.1.1, SVG Export Plug-In . SVG Version: 6.00 Build 0)  -->
<svg version="1.1" id="Layer_1" xmlns="http://www.w3.org/2000/svg" xmlns:xlink="http://www.w3.org/1999/xlink" x="0px" y="0px"
	 viewBox="0 0 256 256" style="enable-background:new 0 0 256 256;" xml:space="preserve">
<style type="text/css">
	.st0{fill:#00F6FF;}
</style>
<g transform="translate(1.4065934065934016 1.4065934065934016) scale(2.81 2.81)">
	<path class="st0" d="M73.73,43.99C69.16,36.15,57.89,31.08,45,31.08s-24.16,5.07-28.73,12.91c-0.36,0.62-0.36,1.39,0,2.01
		C20.84,53.85,32.11,58.92,45,58.92s24.16-5.07,28.73-12.91C74.09,45.38,74.09,44.62,73.73,43.99z M45,54.92
		c-3.79,0-6.88-4.33-6.88-9.64s3.08-9.64,6.88-9.64s6.88,4.33,6.88,9.64S48.79,54.92,45,54.92z M20.38,45
		c3.16-4.48,9.39-7.81,16.82-9.21c-1.9,2.46-3.07,5.8-3.07,9.48c0,3.37,0.98,6.44,2.6,8.83C29.5,52.66,23.47,49.38,20.38,45z
		 M53.28,54.1c1.62-2.38,2.6-5.46,2.6-8.83c0-3.68-1.17-7.03-3.07-9.48c7.43,1.39,13.66,4.73,16.82,9.21
		C66.53,49.38,60.5,52.66,53.28,54.1z"/>
	<path class="st0" d="M45,0C20.19,0,0,20.19,0,45s20.19,45,45,45s45-20.19,45-45S69.81,0,45,0z M45,86C22.39,86,4,67.61,4,45
		S22.39,4,45,4s41,18.39,41,41S67.61,86,45,86z"/>
</g>
</svg>
