<?xml version="1.0" encoding="utf-8"?>
<!-- Generator: Adobe Illustrator 27.1.1, SVG Export Plug-In . SVG Version: 6.00 Build 0)  -->
<svg version="1.1" id="Layer_1" xmlns="http://www.w3.org/2000/svg" xmlns:xlink="http://www.w3.org/1999/xlink" x="0px" y="0px"
	 viewBox="0 0 256 256" style="enable-background:new 0 0 256 256;" xml:space="preserve">
<style type="text/css">
	.st0{fill:#F58614;}
</style>
<g transform="translate(1.4065934065934016 1.4065934065934016) scale(2.81 2.81)">
	<path class="st0" d="M73.7,44C69.2,36.2,57.9,31.1,45,31.1S20.8,36.2,16.3,44c-0.4,0.6-0.4,1.4,0,2c4.6,7.9,15.8,12.9,28.7,12.9
		S69.2,53.8,73.7,46C74.1,45.4,74.1,44.6,73.7,44z M45,54.9c-3.8,0-6.9-4.3-6.9-9.6s3.1-9.6,6.9-9.6s6.9,4.3,6.9,9.6
		S48.8,54.9,45,54.9z M20.4,45c3.2-4.5,9.4-7.8,16.8-9.2c-1.9,2.5-3.1,5.8-3.1,9.5c0,3.4,1,6.4,2.6,8.8C29.5,52.7,23.5,49.4,20.4,45
		z M53.3,54.1c1.6-2.4,2.6-5.5,2.6-8.8c0-3.7-1.2-7-3.1-9.5c7.4,1.4,13.7,4.7,16.8,9.2C66.5,49.4,60.5,52.7,53.3,54.1z"/>
	<path class="st0" d="M45,0C20.2,0,0,20.2,0,45s20.2,45,45,45s45-20.2,45-45S69.8,0,45,0z M45,86C22.4,86,4,67.6,4,45S22.4,4,45,4
		s41,18.4,41,41S67.6,86,45,86z"/>
</g>
</svg>
