<?xml version="1.0" encoding="utf-8"?>
<!-- Generator: Adobe Illustrator 27.1.1, SVG Export Plug-In . SVG Version: 6.00 Build 0)  -->
<svg version="1.1" id="Layer_1" xmlns="http://www.w3.org/2000/svg" xmlns:xlink="http://www.w3.org/1999/xlink" x="0px" y="0px"
	 viewBox="0 0 256 256" style="enable-background:new 0 0 256 256;" xml:space="preserve">
<style type="text/css">
	.st0{fill:#00F6FF;}
</style>
<g transform="translate(1.4065934065934016 1.4065934065934016) scale(2.81 2.81)">
	<path class="st0" d="M65.29,45c0-4.94-0.46-9.7-1.29-14.13H47v28.25h17C64.83,54.7,65.29,49.94,65.29,45z"/>
	<path class="st0" d="M47,4.21v22.66h16.12C60.03,14.61,53.97,5.66,47,4.21z"/>
	<path class="st0" d="M47,85.79c6.97-1.45,13.03-10.4,16.12-22.66H47V85.79z"/>
	<path class="st0" d="M87.72,59.13C89.19,54.68,90,49.94,90,45s-0.81-9.68-2.28-14.13H68.11c0.77,4.43,1.18,9.17,1.18,14.13
		s-0.42,9.7-1.18,14.13H87.72z"/>
	<path class="st0" d="M22.7,26.87C26.39,10.91,34.88,0,45,0C26.6,0,10.79,11.05,3.81,26.87H22.7z"/>
	<path class="st0" d="M67.31,26.87h18.88C79.21,11.05,63.4,0,45,0C55.12,0,63.61,10.91,67.31,26.87z"/>
	<path class="st0" d="M43,4.21c-6.97,1.45-13.03,10.4-16.12,22.66H43V4.21z"/>
	<path class="st0" d="M67.31,63.13C63.61,79.08,55.12,90,45,90c18.4,0,34.21-11.05,41.19-26.87H67.31z"/>
	<path class="st0" d="M22.7,63.13H3.81C10.79,78.95,26.6,90,45,90C34.88,90,26.39,79.08,22.7,63.13z"/>
	<path class="st0" d="M43,30.87H26c-0.83,4.43-1.29,9.19-1.29,14.13s0.46,9.7,1.29,14.13h17V30.87z"/>
	<path class="st0" d="M43,85.79V63.13H26.88C29.97,75.39,36.03,84.34,43,85.79z"/>
	<path class="st0" d="M2.28,30.87C0.81,35.32,0,40.06,0,45s0.81,9.68,2.27,14.13h19.61c-0.76-4.43-1.18-9.17-1.18-14.13
		s0.42-9.7,1.18-14.13C21.89,30.87,2.28,30.87,2.28,30.87z"/>
</g>
</svg>
