<?xml version="1.0" encoding="utf-8"?>
<!-- Generator: Adobe Illustrator 27.1.1, SVG Export Plug-In . SVG Version: 6.00 Build 0)  -->
<svg version="1.1" id="Layer_1" xmlns="http://www.w3.org/2000/svg" xmlns:xlink="http://www.w3.org/1999/xlink" x="0px" y="0px"
	 viewBox="0 0 256 256" style="enable-background:new 0 0 256 256;" xml:space="preserve">
<style type="text/css">
	.st0{fill:#F58614;}
</style>
<g transform="translate(1.4065934065934016 1.4065934065934016) scale(2.81 2.81)">
	<path class="st0" d="M65.3,45c0-4.9-0.5-9.7-1.3-14.1H47v28.2h17C64.8,54.7,65.3,49.9,65.3,45z"/>
	<path class="st0" d="M47,4.2v22.7h16.1C60,14.6,54,5.7,47,4.2z"/>
	<path class="st0" d="M47,85.8c7-1.4,13-10.4,16.1-22.7H47V85.8z"/>
	<path class="st0" d="M87.7,59.1C89.2,54.7,90,49.9,90,45s-0.8-9.7-2.3-14.1H68.1c0.8,4.4,1.2,9.2,1.2,14.1s-0.4,9.7-1.2,14.1H87.7z
		"/>
	<path class="st0" d="M22.7,26.9C26.4,10.9,34.9,0,45,0C26.6,0,10.8,11.1,3.8,26.9H22.7z"/>
	<path class="st0" d="M67.3,26.9h18.9C79.2,11.1,63.4,0,45,0C55.1,0,63.6,10.9,67.3,26.9z"/>
	<path class="st0" d="M43,4.2c-7,1.4-13,10.4-16.1,22.7H43V4.2z"/>
	<path class="st0" d="M67.3,63.1C63.6,79.1,55.1,90,45,90c18.4,0,34.2-11.1,41.2-26.9L67.3,63.1L67.3,63.1z"/>
	<path class="st0" d="M22.7,63.1H3.8C10.8,78.9,26.6,90,45,90C34.9,90,26.4,79.1,22.7,63.1z"/>
	<path class="st0" d="M43,30.9H26c-0.8,4.4-1.3,9.2-1.3,14.1s0.5,9.7,1.3,14.1h17V30.9z"/>
	<path class="st0" d="M43,85.8V63.1H26.9C30,75.4,36,84.3,43,85.8z"/>
	<path class="st0" d="M2.3,30.9C0.8,35.3,0,40.1,0,45s0.8,9.7,2.3,14.1h19.6c-0.8-4.4-1.2-9.2-1.2-14.1s0.4-9.7,1.2-14.1
		C21.9,30.9,2.3,30.9,2.3,30.9z"/>
</g>
</svg>
